<svg width="24" height="27" viewBox="0 0 24 27" fill="none" xmlns="http://www.w3.org/2000/svg">
<path d="M22.6183 22.446L23.9981 6.7905C24.0039 6.72809 23.9963 6.66519 23.9757 6.60583C23.9551 6.54647 23.922 6.49196 23.8786 6.44578C23.8351 6.39961 23.7823 6.36279 23.7234 6.33768C23.6645 6.31258 23.6009 6.29974 23.5367 6.3H19.8449V3.15C19.844 3.0307 19.7961 2.91631 19.7111 2.8305L16.9423 0.1305C16.8543 0.0476119 16.737 0.000888429 16.6147 0H7.38534C7.263 0.000888429 7.14569 0.0476119 7.0577 0.1305L4.2889 2.8305C4.2039 2.91631 4.15598 3.0307 4.15507 3.15V6.3H0.46334C0.39908 6.29974 0.335474 6.31258 0.276596 6.33768C0.217718 6.36279 0.164866 6.39961 0.121424 6.44578C0.0779823 6.49196 0.044909 6.54647 0.0243223 6.60583C0.00373551 6.66519 -0.00391081 6.72809 0.00187312 6.7905L1.38166 22.446L0.0249465 26.406C0.00206312 26.4737 -0.00401276 26.5457 0.0072191 26.6161C0.018451 26.6865 0.0466694 26.7533 0.0895518 26.811C0.13155 26.8696 0.187496 26.9174 0.252596 26.9503C0.317696 26.9833 0.390009 27.0003 0.46334 27H23.5367C23.61 27.0003 23.6823 26.9833 23.7474 26.9503C23.8125 26.9174 23.8685 26.8696 23.9104 26.811C23.9533 26.7533 23.9816 26.6865 23.9928 26.6161C24.004 26.5457 23.9979 26.4737 23.9751 26.406L22.6183 22.446ZM7.57454 0.9H16.4255L18.2713 2.7H5.72867L7.57454 0.9ZM18.922 3.6V6.3H17.0761V3.6H18.922ZM16.1532 3.6V6.3H7.8468V3.6H16.1532ZM5.078 3.6H6.92387V6.3H5.078V3.6ZM1.10478 26.1L2.28613 22.644C2.3054 22.5844 2.31322 22.5219 2.30921 22.4595L0.966338 7.2H23.0337L21.6908 22.4595C21.6868 22.5219 21.6946 22.5844 21.7139 22.644L22.8952 26.1H1.10478Z" fill="white"/>
<path d="M18.922 13.95V13.05C18.9203 11.9764 18.4822 10.9472 17.7037 10.1881C16.9252 9.42889 15.8698 9.00167 14.7688 9H9.2312C8.13023 9.00167 7.07484 9.42889 6.29633 10.1881C5.51783 10.9472 5.07971 11.9764 5.078 13.05V13.95C5.078 14.0693 5.12662 14.1838 5.21316 14.2682C5.29971 14.3526 5.41708 14.4 5.53947 14.4H5.70098C5.59561 14.6102 5.54039 14.841 5.53947 15.075C5.54004 15.2848 5.5836 15.4924 5.66761 15.6856C5.75161 15.8788 5.87435 16.0537 6.02862 16.2C5.87435 16.3463 5.75161 16.5212 5.66761 16.7144C5.5836 16.9075 5.54004 17.1152 5.53947 17.325C5.54039 17.559 5.59561 17.7898 5.70098 18H5.53947C5.41708 18 5.29971 18.0474 5.21316 18.1318C5.12662 18.2162 5.078 18.3307 5.078 18.45C5.07971 19.5236 5.51783 20.5528 6.29633 21.3119C7.07484 22.0711 8.13023 22.4983 9.2312 22.5H14.7688C15.8698 22.4983 16.9252 22.0711 17.7037 21.3119C18.4822 20.5528 18.9203 19.5236 18.922 18.45C18.922 18.3307 18.8734 18.2162 18.7868 18.1318C18.7003 18.0474 18.5829 18 18.4605 18H18.299C18.4044 17.7898 18.4596 17.559 18.4605 17.325C18.46 17.1152 18.4164 16.9075 18.3324 16.7144C18.2484 16.5212 18.1257 16.3463 17.9714 16.2C18.1257 16.0537 18.2484 15.8788 18.3324 15.6856C18.4164 15.4924 18.46 15.2848 18.4605 15.075C18.4596 14.841 18.4044 14.6102 18.299 14.4H18.4605C18.5829 14.4 18.7003 14.3526 18.7868 14.2682C18.8734 14.1838 18.922 14.0693 18.922 13.95ZM14.7688 21.6H9.2312C8.45464 21.599 7.70434 21.3257 7.11725 20.83C6.53015 20.3343 6.14541 19.6493 6.03324 18.9H13.4675C13.562 19.163 13.7379 19.391 13.9711 19.5522C14.2042 19.7135 14.483 19.8001 14.7688 19.8001C15.0546 19.8001 15.3334 19.7135 15.5665 19.5522C15.7997 19.391 15.9756 19.163 16.0701 18.9H17.9668C17.8546 19.6493 17.4698 20.3343 16.8828 20.83C16.2957 21.3257 15.5454 21.599 14.7688 21.6ZM16.8454 15.75H15.6917C15.5693 15.75 15.452 15.7974 15.3654 15.8818C15.2789 15.9662 15.2303 16.0807 15.2303 16.2V18.45C15.2303 18.5693 15.1816 18.6838 15.0951 18.7682C15.0086 18.8526 14.8912 18.9 14.7688 18.9C14.6464 18.9 14.529 18.8526 14.4425 18.7682C14.356 18.6838 14.3073 18.5693 14.3073 18.45V16.2C14.3073 16.0807 14.2587 15.9662 14.1722 15.8818C14.0856 15.7974 13.9683 15.75 13.8459 15.75H12.4615C12.3391 15.75 12.2217 15.7974 12.1352 15.8818C12.0486 15.9662 12 16.0807 12 16.2C12 16.3193 11.9514 16.4338 11.8648 16.5182C11.7783 16.6026 11.6609 16.65 11.5385 16.65C11.4161 16.65 11.2988 16.6026 11.2122 16.5182C11.1257 16.4338 11.0771 16.3193 11.0771 16.2C11.0771 16.0807 11.0284 15.9662 10.9419 15.8818C10.8554 15.7974 10.738 15.75 10.6156 15.75H7.1546C6.97102 15.75 6.79496 15.6789 6.66514 15.5523C6.53533 15.4257 6.4624 15.254 6.4624 15.075C6.4624 14.896 6.53533 14.7243 6.66514 14.5977C6.79496 14.4711 6.97102 14.4 7.1546 14.4H16.8454C17.029 14.4 17.205 14.4711 17.3349 14.5977C17.4647 14.7243 17.5376 14.896 17.5376 15.075C17.5376 15.254 17.4647 15.4257 17.3349 15.5523C17.205 15.6789 17.029 15.75 16.8454 15.75ZM17.5376 17.325C17.5376 17.504 17.4647 17.6757 17.3349 17.8023C17.205 17.9289 17.029 18 16.8454 18H16.1532V16.65H16.8454C17.029 16.65 17.205 16.7211 17.3349 16.8477C17.4647 16.9743 17.5376 17.146 17.5376 17.325ZM7.1546 16.65H10.2326C10.3277 16.9137 10.5044 17.1421 10.7384 17.3037C10.9723 17.4652 11.2519 17.552 11.5385 17.552C11.8252 17.552 12.1048 17.4652 12.3387 17.3037C12.5726 17.1421 12.7494 16.9137 12.8445 16.65H13.3844V18H7.1546C6.97102 18 6.79496 17.9289 6.66514 17.8023C6.53533 17.6757 6.4624 17.504 6.4624 17.325C6.4624 17.146 6.53533 16.9743 6.66514 16.8477C6.79496 16.7211 6.97102 16.65 7.1546 16.65ZM17.9991 13.5H6.00094V13.05C6.00191 12.2149 6.34256 11.4142 6.94814 10.8237C7.55372 10.2331 8.37478 9.90095 9.2312 9.9H14.7688C15.6252 9.90095 16.4463 10.2331 17.0519 10.8237C17.6574 11.4142 17.9981 12.2149 17.9991 13.05V13.5Z" fill="white"/>
<path d="M9.2312 10.8H8.30827V11.7H9.2312V10.8Z" fill="white"/>
<path d="M10.6156 11.7H9.69267V12.6H10.6156V11.7Z" fill="white"/>
<path d="M12.4615 10.8H11.5385V11.7H12.4615V10.8Z" fill="white"/>
<path d="M13.8459 11.7H12.9229V12.6H13.8459V11.7Z" fill="white"/>
<path d="M15.6917 10.8H14.7688V11.7H15.6917V10.8Z" fill="white"/>
<path d="M17.0761 11.7H16.1532V12.6H17.0761V11.7Z" fill="white"/>
</svg>
