<svg width="17" height="28" viewBox="0 0 17 28" fill="none" xmlns="http://www.w3.org/2000/svg">
<path d="M14.5076 25.1138C14.8372 25.3674 15.073 25.7228 15.1783 26.1242L16.1807 26.1242L16.1807 21.1578L14.576 19.5587L13.8277 19.5587L13.8277 18.6207L14.576 18.6207L16.1807 17.0216L16.1807 0.800049L15.1783 0.800049C15.073 1.20148 14.8372 1.5568 14.5076 1.8104C14.1781 2.064 13.7735 2.20156 13.3571 2.20156C12.9408 2.20156 12.5362 2.064 12.2066 1.8104C11.8771 1.5568 11.6412 1.20148 11.536 0.800049L10.943 0.800049C10.8377 1.20148 10.6019 1.5568 10.2723 1.8104C9.9428 2.064 9.5382 2.20156 9.12185 2.20156C8.70549 2.20156 8.30089 2.064 7.97135 1.8104C7.64182 1.5568 7.40595 1.20148 7.30067 0.800048L6.70773 0.800048C6.60245 1.20148 6.36658 1.5568 6.03705 1.8104C5.70751 2.064 5.30291 2.20156 4.88655 2.20156C4.4702 2.20156 4.0656 2.064 3.73606 1.8104C3.40653 1.5568 3.17066 1.20148 3.06538 0.800048L2.06303 0.800048L2.06303 17.0216L3.66773 18.6207L4.41597 18.6207L4.41597 19.5587L3.66773 19.5587L2.06303 21.1578L2.06303 26.1242L3.06538 26.1242C3.17066 25.7228 3.40653 25.3674 3.73606 25.1138C4.0656 24.8602 4.4702 24.7227 4.88655 24.7227C5.30291 24.7227 5.70751 24.8602 6.03705 25.1138C6.36658 25.3674 6.60244 25.7228 6.70773 26.1242L7.30067 26.1242C7.40595 25.7228 7.64182 25.3674 7.97135 25.1138C8.30089 24.8602 8.70549 24.7227 9.12185 24.7227C9.5382 24.7227 9.9428 24.8602 10.2723 25.1138C10.6019 25.3674 10.8377 25.7228 10.943 26.1242L11.536 26.1242C11.6412 25.7228 11.8771 25.3674 12.2066 25.1138C12.5362 24.8602 12.9408 24.7227 13.3571 24.7227C13.7735 24.7227 14.1781 24.8602 14.5076 25.1138Z" fill="white"/>
<path fill-rule="evenodd" clip-rule="evenodd" d="M16.9807 21.1035L16.9807 26.731C16.9807 26.8554 16.9311 26.9747 16.8429 27.0626C16.7546 27.1506 16.6349 27.2 16.5101 27.2L14.6278 27.2C14.503 27.2 14.3833 27.1506 14.295 27.0626C14.2068 26.9747 14.1572 26.8554 14.1572 26.731C14.1572 26.4823 14.058 26.2437 13.8815 26.0678C13.705 25.8919 13.4656 25.7931 13.216 25.7931C12.9664 25.7931 12.727 25.8919 12.5505 26.0678C12.374 26.2437 12.2748 26.4823 12.2748 26.731C12.2748 26.8554 12.2252 26.9747 12.137 27.0626C12.0487 27.1506 11.929 27.2 11.8042 27.2L10.3925 27.2C10.2677 27.2 10.148 27.1506 10.0597 27.0626C9.97146 26.9747 9.92188 26.8554 9.92188 26.731C9.92188 26.4823 9.82273 26.2437 9.64622 26.0678C9.46972 25.8919 9.23032 25.7931 8.98071 25.7931C8.73109 25.7931 8.4917 25.8919 8.3152 26.0678C8.13869 26.2437 8.03953 26.4823 8.03953 26.731C8.03953 26.8554 7.98995 26.9747 7.9017 27.0626C7.81345 27.1506 7.69375 27.2 7.56895 27.2L6.15718 27.2C6.03238 27.2 5.91268 27.1506 5.82443 27.0626C5.73617 26.9747 5.68659 26.8554 5.68659 26.731C5.68659 26.4823 5.58744 26.2437 5.41093 26.0678C5.23443 25.8919 4.99503 25.7931 4.74542 25.7931C4.4958 25.7931 4.25641 25.8919 4.07991 26.0678C3.9034 26.2437 3.80424 26.4823 3.80424 26.731C3.80424 26.8554 3.75466 26.9747 3.66641 27.0626C3.57816 27.1506 3.45846 27.2 3.33365 27.2L1.4513 27.2C1.3265 27.2 1.2068 27.1506 1.11855 27.0626C1.0303 26.9747 0.980716 26.8554 0.980716 26.731L0.980716 21.1035C0.980359 21.0417 0.992229 20.9806 1.01565 20.9234C1.03907 20.8663 1.07357 20.8143 1.11719 20.7705L2.67013 19.2276L1.11719 17.6847C1.07357 17.6409 1.03907 17.5889 1.01565 17.5318C0.99223 17.4746 0.980359 17.4134 0.980716 17.3517L0.980717 0.468965C0.980717 0.344588 1.0303 0.225305 1.11855 0.137356C1.2068 0.049408 1.3265 -6.84268e-07 1.45131 -6.78812e-07L3.33366 -5.96532e-07C3.45846 -5.91076e-07 3.57816 0.0494081 3.66641 0.137356C3.75466 0.225305 3.80424 0.344588 3.80424 0.468965C3.80424 0.71772 3.9034 0.956286 4.07991 1.13218C4.25641 1.30808 4.4958 1.4069 4.74542 1.4069C4.99503 1.4069 5.23443 1.30808 5.41093 1.13218C5.58744 0.956286 5.68659 0.71772 5.68659 0.468965C5.68659 0.344588 5.73617 0.225305 5.82443 0.137356C5.91268 0.0494082 6.03238 -4.78567e-07 6.15718 -4.73111e-07L7.56895 -4.11401e-07C7.69375 -4.05946e-07 7.81345 0.0494083 7.9017 0.137356C7.98995 0.225305 8.03953 0.344588 8.03953 0.468965C8.03953 0.71772 8.13869 0.956286 8.3152 1.13218C8.4917 1.30808 8.7311 1.4069 8.98071 1.4069C9.23033 1.4069 9.46972 1.30808 9.64622 1.13218C9.82273 0.956286 9.92189 0.71772 9.92189 0.468965C9.92189 0.344588 9.97147 0.225305 10.0597 0.137356C10.148 0.0494084 10.2677 -2.93437e-07 10.3925 -2.87981e-07L11.8042 -2.26271e-07C11.929 -2.20815e-07 12.0487 0.0494085 12.137 0.137356C12.2252 0.225305 12.2748 0.344588 12.2748 0.468965C12.2748 0.71772 12.374 0.956287 12.5505 1.13218C12.727 1.30808 12.9664 1.4069 13.216 1.4069C13.4656 1.4069 13.705 1.30808 13.8815 1.13218C14.058 0.956287 14.1572 0.71772 14.1572 0.468965C14.1572 0.344588 14.2068 0.225305 14.295 0.137356C14.3833 0.0494086 14.503 -1.08306e-07 14.6278 -1.02851e-07L16.5101 -2.05704e-08C16.6349 -1.51149e-08 16.7546 0.0494087 16.8429 0.137357C16.9311 0.225305 16.9807 0.344588 16.9807 0.468965L16.9807 17.3517C16.9811 17.4134 16.9692 17.4746 16.9458 17.5318C16.9224 17.5889 16.8878 17.6409 16.8442 17.6847L15.2913 19.2276L16.8442 20.7705C16.8878 20.8143 16.9224 20.8663 16.9458 20.9234C16.9692 20.9806 16.9811 21.0417 16.9807 21.1035ZM14.3665 25.2517C14.696 25.5053 14.9319 25.8606 15.0372 26.2621L16.0395 26.2621L16.0395 21.2957L14.4348 19.6966L13.6866 19.6966L13.6866 18.7586L14.4348 18.7586L16.0395 17.1595L16.0395 0.937931L15.0372 0.937931C14.9319 1.33936 14.696 1.69468 14.3665 1.94828C14.037 2.20188 13.6324 2.33944 13.216 2.33944C12.7996 2.33944 12.395 2.20188 12.0655 1.94828C11.736 1.69468 11.5001 1.33936 11.3948 0.937931L10.8019 0.937931C10.6966 1.33936 10.4607 1.69468 10.1312 1.94828C9.80167 2.20188 9.39706 2.33944 8.98071 2.33944C8.56436 2.33944 8.15975 2.20188 7.83022 1.94828C7.50068 1.69468 7.26482 1.33936 7.15954 0.937931L6.56659 0.937931C6.46131 1.33936 6.22545 1.69468 5.89591 1.94828C5.56638 2.20188 5.16177 2.33944 4.74542 2.33944C4.32907 2.33944 3.92446 2.20188 3.59493 1.94828C3.26539 1.69468 3.02953 1.33936 2.92424 0.937931L1.92189 0.93793L1.92189 17.1594L3.5266 18.7586L4.27483 18.7586L4.27483 19.6966L3.5266 19.6966L1.92189 21.2957L1.92189 26.2621L2.92424 26.2621C3.02953 25.8606 3.26539 25.5053 3.59493 25.2517C3.92446 24.9981 4.32907 24.8606 4.74542 24.8606C5.16177 24.8606 5.56638 24.9981 5.89591 25.2517C6.22544 25.5053 6.46131 25.8606 6.56659 26.2621L7.15954 26.2621C7.26482 25.8606 7.50068 25.5053 7.83022 25.2517C8.15975 24.9981 8.56436 24.8606 8.98071 24.8606C9.39706 24.8606 9.80167 24.9981 10.1312 25.2517C10.4607 25.5053 10.6966 25.8606 10.8019 26.2621L11.3948 26.2621C11.5001 25.8606 11.736 25.5053 12.0655 25.2517C12.395 24.9981 12.7996 24.8606 13.216 24.8606C13.6324 24.8606 14.037 24.9981 14.3665 25.2517ZM9.42777 7.78483C9.42777 8.12616 9.52933 8.45982 9.71962 8.74363C9.90991 9.02743 10.1804 9.24863 10.4968 9.37925C10.8133 9.50987 11.1615 9.54405 11.4974 9.47746C11.8333 9.41087 12.1419 9.2465 12.3841 9.00515C12.6263 8.76379 12.7912 8.45628 12.858 8.12151C12.9248 7.78674 12.8905 7.43974 12.7595 7.1244C12.6284 6.80905 12.4064 6.53952 12.1216 6.34988C11.8369 6.16025 11.502 6.05904 11.1595 6.05904C10.7002 6.05904 10.2598 6.24086 9.93499 6.56451C9.61022 6.88816 9.42777 7.32712 9.42777 7.78483ZM11.9501 7.78483C11.9501 7.94065 11.9038 8.09298 11.8169 8.22254C11.73 8.3521 11.6065 8.45309 11.4621 8.51272C11.3176 8.57235 11.1587 8.58795 11.0053 8.55755C10.8519 8.52715 10.7111 8.45212 10.6005 8.34193C10.4899 8.23175 10.4146 8.09136 10.3841 7.93853C10.3536 7.7857 10.3693 7.62729 10.4291 7.48333C10.489 7.33936 10.5903 7.21632 10.7203 7.12974C10.8503 7.04317 11.0032 6.99697 11.1595 6.99697C11.3692 6.99697 11.5703 7.07997 11.7186 7.22773C11.8668 7.37548 11.9501 7.57587 11.9501 7.78483ZM8.22777 10.9879C8.22777 10.6465 8.1262 10.3129 7.93591 10.0291C7.74563 9.74526 7.47516 9.52406 7.15872 9.39344C6.84228 9.26282 6.49408 9.22864 6.15816 9.29523C5.82223 9.36182 5.51366 9.52619 5.27146 9.76754C5.02927 10.0089 4.86434 10.3164 4.79752 10.6512C4.7307 10.9859 4.76499 11.3329 4.89606 11.6483C5.02714 11.9636 5.2491 12.2332 5.53389 12.4228C5.81868 12.6124 6.1535 12.7137 6.49601 12.7137C6.95492 12.7124 7.39467 12.5302 7.71917 12.2068C8.04367 11.8834 8.22653 11.4452 8.22777 10.9879ZM5.70542 10.9879C5.70542 10.832 5.75178 10.6797 5.83866 10.5502C5.92553 10.4206 6.049 10.3196 6.19346 10.26C6.33792 10.2003 6.49688 10.1847 6.65024 10.2151C6.8036 10.2455 6.94447 10.3206 7.05504 10.4308C7.1656 10.5409 7.2409 10.6813 7.2714 10.8342C7.30191 10.987 7.28625 11.1454 7.22641 11.2894C7.16657 11.4333 7.06524 11.5564 6.93523 11.6429C6.80522 11.7295 6.65237 11.7757 6.49601 11.7757C6.39061 11.7782 6.28578 11.7597 6.18768 11.7212C6.08957 11.6828 6.00019 11.6251 5.92477 11.5517C5.84935 11.4783 5.78942 11.3906 5.74852 11.2938C5.70762 11.1969 5.68656 11.0929 5.68659 10.9879L5.70542 10.9879ZM12.6019 11.4356L5.59023 6.43673L5.04262 7.19955L12.0542 12.1984L12.6019 11.4356ZM9.92189 18.7586L11.8042 18.7586L11.8042 19.6966L9.92189 19.6966L9.92189 18.7586ZM6.15718 19.6966L8.03953 19.6966L8.03953 18.7586L6.15718 18.7586L6.15718 19.6966Z" fill="black"/>
</svg>
