<svg width="266" height="208" viewBox="0 0 266 208" fill="none" xmlns="http://www.w3.org/2000/svg">
    <g filter="url(#filter0_d)">
        <path
            d="M96.2767 0.000244141H35.4045C31.9594 0.000244141 29.1666 2.79303 29.1666 6.23811V61.9928C29.1666 65.4379 31.9594 68.2307 35.4045 68.2307H96.2767C99.7218 68.2307 102.515 65.4379 102.515 61.9928V6.23811C102.515 2.79303 99.7218 0.000244141 96.2767 0.000244141Z"
            fill="white" />
        <g style="mix-blend-mode:multiply">
            <path
                d="M96.277 0H77.5634C79.2177 0 80.8044 0.657202 81.9742 1.82703C83.144 2.99686 83.8012 4.58348 83.8012 6.23787V61.9928C83.8012 63.6472 83.144 65.2338 81.9742 66.4037C80.8044 67.5735 79.2177 68.2307 77.5634 68.2307H96.277C97.9313 68.2307 99.518 67.5735 100.688 66.4037C101.858 65.2338 102.515 63.6472 102.515 61.9928V6.23787C102.515 4.58348 101.858 2.99686 100.688 1.82703C99.518 0.657202 97.9313 0 96.277 0Z"
                fill="#FEFDF4" />
        </g>
        <path
            d="M52.8261 28.2258C52.8261 25.3557 53.4937 25.2744 53.7733 24.8141V20.184L41.9733 20.184L41.9733 24.7329C42.5146 25.0578 42.8303 26.4568 42.9205 27.1157L42.9205 38.515C42.9205 41.3852 42.2529 41.4664 41.9733 41.9267L41.9733 46.5568H53.7733V42.0079C53.2321 41.683 52.9163 40.284 52.8261 39.6252V28.2258Z"
            fill="#C30101" />
        <path
            d="M57.5624 20.0757V30.1753C58.2161 30.327 58.5793 29.3901 58.6792 28.9027L59.1695 23.2437C59.6871 20.6714 58.4885 20.1298 57.5624 20.0757Z"
            fill="#C30101" />
        <path
            d="M57.5624 20.1028V30.159C56.9086 30.31 56.5454 29.3772 56.4455 28.8919L55.9552 23.2571C55.4377 20.6959 56.6362 20.1567 57.5624 20.1028Z"
            fill="#C30101" />
        <path
            d="M89.1172 28.226C89.0516 32.8274 88.9925 39.7035 89.1447 40.35C89.1496 40.3709 89.1544 40.3914 89.1591 40.4115L89.1611 40.42L89.1616 40.422C89.3203 41.0988 89.3622 41.2777 90.1208 42.0847V46.4756H81.1185V42.0847C81.8778 41.3908 82.1218 40.6391 82.1489 40.35V32.6794L76.8051 46.4756H73.1785L69.3083 32.7206V40.3833C69.3354 40.6721 69.5789 41.4231 70.3368 42.1162V46.4756H61.3514V42.1162C61.604 41.8455 62.1525 41.1198 62.3257 40.3833C62.4989 39.6468 62.3979 30.8162 62.3257 26.4929C62.3347 26.1951 62.1741 25.4152 61.4596 24.6787V20.1298H73.1785L75.7226 30.5273V30.4839L76.8051 20.0757H84.4031C84.2282 20.1167 84.0324 20.2081 83.8755 20.3948C83.6619 20.6491 83.5418 21.0549 83.6119 21.6799C83.6184 21.7377 83.5933 21.7978 83.5443 21.8364C83.2251 22.088 82.8327 22.5277 82.6838 23.0144C82.6084 23.2608 82.5937 23.5257 82.6905 23.7835C82.7876 24.0418 82.9905 24.2768 83.3208 24.4739C83.3781 24.5081 83.4059 24.565 83.4006 24.6161L83.3973 24.6468C83.3548 25.0489 83.2957 25.6079 83.4659 26.0689C83.554 26.3077 83.7044 26.5237 83.9493 26.6788C84.1925 26.8328 84.5177 26.9197 84.9443 26.9216C85.0109 26.9219 85.0669 26.9612 85.0876 27.0153C85.2292 27.3854 85.3692 27.7128 85.6397 27.9191C85.9167 28.1303 86.3022 28.1961 86.8852 28.1272C86.9283 28.1221 86.9735 28.1357 87.0098 28.1661C87.2365 28.3557 87.5783 28.5705 87.9713 28.6249C88.3404 28.676 88.7419 28.5834 89.1172 28.226Z"
            fill="#C30101" />
        <path
            d="M95.5001 165.363C95.4928 173.434 92.2814 181.172 86.5718 186.876C80.8621 192.581 73.1213 195.785 65.0502 195.785C56.9792 195.785 49.2384 192.581 43.5287 186.876C37.819 181.172 34.6077 173.434 34.6004 165.363C34.6004 165.363 34.2029 159.76 36.3706 159.895C38.5383 160.031 95.5001 159.218 95.5001 159.218V165.363Z"
            fill="#D4D4D4" />
        <path
            d="M86.1431 159.348V165.363C86.1425 172.628 83.5449 179.653 78.819 185.172C74.0932 190.69 67.5504 194.337 60.3717 195.454C64.7136 196.126 69.1494 195.851 73.375 194.647C77.6006 193.444 81.5159 191.341 84.8526 188.483C88.1893 185.625 90.8684 182.079 92.7062 178.088C94.544 174.097 95.497 169.756 95.4999 165.363V159.218C95.4999 159.218 91.7496 159.271 86.1431 159.348Z"
            fill="#A4A4A4" />
        <path
            d="M76.88 166.67C76.0642 171.697 71.5205 177.148 65.0503 177.094C58.4998 177.04 53.4005 171.373 53.3188 165.363C53.3207 163.237 53.9004 161.151 54.9958 159.329C56.0913 157.507 57.6613 156.017 59.5381 155.018C65.3992 151.939 72.9831 154.772 75.796 159.895C76.8944 161.972 77.2755 164.354 76.88 166.67Z"
            fill="white" />
        <path
            d="M201.273 160.322L13.319 162.644C2.86545 144.689 18.1861 108.081 44.136 93.0844C57.7696 85.2056 71.6886 84.8221 79.5173 85.2859H127.327C117.347 100.48 118.387 119.87 129.263 132.322C138.037 142.367 152.174 146.717 164.808 143.935C195.096 137.266 193.204 102.243 188.195 78.5845C187.817 76.8022 182.465 57.64 179.778 49.7773L199.845 54.3401C207.158 74.6873 224.106 127.888 224.106 127.888L201.273 160.322Z"
            fill="#F4F4F4" />
        <path
            d="M79.5172 85.2859C76.6379 85.1133 73.7508 85.1133 70.8715 85.2859H79.5172ZM119.906 132.322C127.987 141.573 140.615 145.989 152.43 144.457C143.489 143.363 135.253 139.049 129.263 132.322C118.387 119.87 117.347 100.48 127.327 85.2859H117.97C107.99 100.48 109.03 119.87 119.906 132.322ZM199.844 54.3402L179.778 49.7773C180.012 50.4631 180.268 51.2391 180.538 52.0777L190.488 54.3401C197.801 74.6873 214.749 127.888 214.749 127.888H224.106C224.106 127.888 207.158 74.6873 199.844 54.3402Z"
            fill="#FCFCFC" />
        <path
            d="M256.63 144.525C259.776 147.822 262.142 151.783 263.553 156.115C264.964 160.448 265.385 165.042 264.785 169.559C264.185 174.076 262.579 178.401 260.085 182.214C257.591 186.028 254.273 189.233 250.376 191.594C246.478 193.955 242.101 195.411 237.566 195.855C233.031 196.299 228.454 195.72 224.173 194.16C219.891 192.6 216.015 190.099 212.828 186.842C209.642 183.584 207.228 179.653 205.762 175.339"
            fill="#D4D4D4" />
        <path
            d="M256.631 144.525L250.349 148.33C253.262 152.572 255.051 157.483 255.551 162.604C256.05 167.725 255.243 172.889 253.206 177.613C251.168 182.338 247.966 186.469 243.899 189.62C239.832 192.772 235.033 194.841 229.949 195.635C236.234 196.608 242.666 195.588 248.342 192.719C254.018 189.85 258.653 185.275 261.597 179.637C264.54 173.999 265.644 167.581 264.753 161.284C263.862 154.986 261.022 149.126 256.631 144.525V144.525Z"
            fill="#A4A4A4" />
        <path
            d="M240.23 155.254C242.041 156.244 243.559 157.694 244.63 159.457C245.702 161.221 246.289 163.236 246.333 165.3C246.377 167.363 245.875 169.401 244.88 171.209C243.884 173.017 242.43 174.53 240.663 175.596C238.896 176.662 236.879 177.243 234.815 177.28C232.752 177.318 230.715 176.81 228.91 175.809C227.106 174.808 225.597 173.349 224.537 171.578C223.476 169.808 222.902 167.789 222.87 165.726C223.194 163.829 223.923 162.024 225.007 160.435C226.091 158.845 227.505 157.508 229.152 156.514C230.8 155.52 232.642 154.893 234.554 154.676C236.465 154.458 238.402 154.655 240.23 155.254H240.23Z"
            fill="white" />
        <path
            d="M13.321 162.645C20.4825 129.482 51.4379 110.773 76.6138 117.224C94.8553 121.897 109.25 139.571 112.608 161.366L13.321 162.645Z"
            fill="#FCFCFC" />
        <path
            d="M76.6138 117.224C70.1483 115.623 63.4 115.54 56.8975 116.983C57.2325 117.06 57.5671 117.138 57.9002 117.224C76.1417 121.897 90.5364 139.571 93.8945 161.366L13.3763 162.404C13.3585 162.484 13.3386 162.564 13.321 162.645L112.608 161.366C109.25 139.571 94.8553 121.897 76.6138 117.224Z"
            fill="#EFEFEF" />
        <path
            d="M210.821 128.341L212.676 127.237C221.203 122.163 231.397 120.684 241.015 123.125C250.633 125.567 258.887 131.73 263.962 140.257L263.962 140.257L197.8 179.627L197.8 179.627C192.726 171.1 191.247 160.905 193.689 151.287C196.131 141.669 202.293 133.415 210.821 128.341Z"
            fill="#FCFCFC" />
        <path
            d="M263.962 140.257C259.821 133.302 253.537 127.877 246.052 124.795C238.567 121.714 230.285 121.142 222.447 123.166C228.374 124.692 233.836 127.648 238.355 131.776C239.317 132.669 240.058 133.775 240.518 135.004C240.978 136.234 241.144 137.554 241.004 138.859C240.864 140.164 240.421 141.419 239.711 142.523C239 143.627 238.042 144.55 236.912 145.218L193.973 170.769C194.861 173.875 196.148 176.852 197.801 179.627V179.627L263.962 140.257L263.962 140.257Z"
            fill="#EFEFEF" />
        <path
            d="M190.008 26.8362H207.078C207.574 26.8362 208.05 27.0334 208.401 27.3843C208.752 27.7352 208.949 28.2112 208.949 28.7075V52.4688C208.949 52.9651 208.752 53.4411 208.401 53.7921C208.05 54.143 207.574 54.3402 207.078 54.3402H190.008C186.361 54.3402 182.863 52.8913 180.284 50.3123C177.705 47.7333 176.256 44.2354 176.256 40.5882C176.256 36.9409 177.705 33.443 180.284 30.864C182.863 28.285 186.361 26.8362 190.008 26.8362Z"
            fill="#FCFCFC" />
        <path
            d="M207.078 26.8362H197.721C198.218 26.8362 198.694 27.0334 199.045 27.3843C199.396 27.7352 199.593 28.2112 199.593 28.7075V52.4688C199.593 52.9651 199.396 53.4411 199.045 53.792C198.694 54.143 198.218 54.3401 197.721 54.3401H207.078C207.575 54.3401 208.051 54.143 208.401 53.792C208.752 53.4411 208.95 52.9651 208.95 52.4688V28.7075C208.95 28.2112 208.752 27.7352 208.401 27.3843C208.051 27.0334 207.575 26.8362 207.078 26.8362Z"
            fill="#EFEFEF" />
        <path
            d="M126.128 68.2307H55.3221C50.6117 68.2307 46.7931 72.0492 46.7931 76.7594C46.7931 81.4697 50.6117 85.2882 55.3221 85.2882H126.128C130.838 85.2882 134.657 81.4697 134.657 76.7594C134.657 72.0492 130.838 68.2307 126.128 68.2307Z"
            fill="#D4D4D4" />
        <path
            d="M126.128 68.2307H107.414C108.534 68.2307 109.643 68.4513 110.678 68.8799C111.713 69.3085 112.653 69.9368 113.445 70.7287C114.237 71.5207 114.865 72.4609 115.294 73.4957C115.722 74.5305 115.943 75.6395 115.943 76.7595C115.943 77.8796 115.722 78.9886 115.294 80.0234C114.865 81.0581 114.237 81.9984 113.445 82.7903C112.653 83.5823 111.713 84.2105 110.678 84.6392C109.643 85.0678 108.534 85.2884 107.414 85.2884H126.128C127.248 85.2884 128.357 85.0678 129.392 84.6392C130.426 84.2105 131.367 83.5823 132.159 82.7903C132.951 81.9984 133.579 81.0581 134.007 80.0234C134.436 78.9886 134.657 77.8796 134.657 76.7595C134.657 75.6395 134.436 74.5305 134.007 73.4957C133.579 72.4609 132.951 71.5207 132.159 70.7287C131.367 69.9368 130.426 69.3085 129.392 68.8799C128.357 68.4513 127.248 68.2307 126.128 68.2307Z"
            fill="#A4A4A4" />
    </g>
    <defs>
        <filter id="filter0_d" x="0" y="0" width="265.053" height="208" filterUnits="userSpaceOnUse"
            color-interpolation-filters="sRGB">
            <feFlood flood-opacity="0" result="BackgroundImageFix" />
            <feColorMatrix in="SourceAlpha" type="matrix"
                values="0 0 0 0 0 0 0 0 0 0 0 0 0 0 0 0 0 0 127 0" />
            <feOffset dx="-6" dy="8" />
            <feGaussianBlur stdDeviation="2" />
            <feColorMatrix type="matrix" values="0 0 0 0 0 0 0 0 0 0 0 0 0 0 0 0 0 0 0.15 0" />
            <feBlend mode="normal" in2="BackgroundImageFix" result="effect1_dropShadow" />
            <feBlend mode="normal" in="SourceGraphic" in2="effect1_dropShadow" result="shape" />
        </filter>
    </defs>
</svg>
