<svg width="316" height="252" viewBox="0 0 316 252" fill="none" xmlns="http://www.w3.org/2000/svg">
<g filter="url(#filter0_d)">
<path d="M165.11 78.3702C168.487 76.3741 171.872 74.4057 174.685 71.374C179.236 66.4696 181.633 60.7192 181.147 53.7756C180.589 45.7512 176.249 40.509 170.654 36.2331C170.512 36.143 170.365 36.0658 170.212 36.0022C167.03 34.3855 163.643 34.0263 160.147 34.3003C154.81 34.7193 150.628 37.4494 147.521 42.3167C146.825 43.4023 146.181 44.5277 145.516 45.6365C142.143 51.245 139.641 57.3664 136.668 63.2099C135.883 64.8296 135.247 66.5282 134.77 68.2793C133.823 71.5157 132.873 74.7507 131.919 77.9843C131.774 78.4685 131.561 78.9899 131.832 79.425C132.358 80.2794 131.784 80.6514 131.288 81.0755C129.973 82.1969 128.488 83.1194 127.365 84.4805C126.08 86.0365 124.828 86.6 122.895 85.9769C120.51 85.2091 118.68 86.5711 117.811 89.1635C116.478 93.1083 119.208 97.2498 122.98 97.0402C123.59 97.0081 124.197 96.7181 124.879 96.9521C124.935 97.6056 124.938 98.2881 125.046 98.9445C125.386 100.855 126.163 102.502 127.914 103.163C129.763 103.861 131.357 103.014 132.737 101.597C133.623 100.674 134.229 99.4736 134.468 98.1683C134.712 96.939 134.827 95.6872 134.811 94.4378C134.784 91.3819 136.073 89.0197 138.196 87.1194C139.008 86.3891 139.053 86.4068 139.541 87.38C140.272 88.821 140.483 89.0025 141.774 88.5699C146.948 86.8358 152.245 85.5268 157.133 82.7742C159.776 81.2896 162.484 79.924 165.11 78.3702ZM137.372 72.3663C137.912 72.5063 138.021 72.9692 137.947 73.5176C137.861 74.1649 137.501 74.4935 136.912 74.4997C136.425 74.344 136.155 74.0073 136.195 73.4297C136.241 72.7867 136.85 72.2344 137.37 72.3659L137.372 72.3663ZM136.29 85.9965C134.107 88.1129 132.836 90.6848 132.701 93.8773C132.662 94.8107 132.647 95.7504 132.535 96.6803C132.35 98.294 131.82 99.7292 130.428 100.579C129.154 101.348 128.313 101.087 127.59 99.7504C127.11 98.8608 127.072 97.8757 127.141 96.8675C127.173 96.371 127.296 95.8753 127.312 95.3788C127.348 94.1957 126.771 93.6411 125.725 93.9395C124.854 94.222 123.969 94.4481 123.077 94.6166C121.706 94.8245 120.788 94.1238 120.124 92.9771C119.435 91.7869 119.529 90.4959 120.148 89.2444C120.295 88.8963 120.539 88.6068 120.843 88.419C121.147 88.2312 121.495 88.1552 121.835 88.2024C122.506 88.2716 123.167 88.4113 123.81 88.6197C125.115 89.0623 126.28 88.825 127.247 87.7129C129.285 85.3774 131.892 83.7971 133.977 81.514C134.555 80.8745 135.57 80.9668 135.825 81.723C136.207 82.8867 136.96 83.6358 137.775 84.3549C137.439 85.1729 136.791 85.5096 136.286 86.0065L136.29 85.9965ZM177.339 56.6598C177.97 56.7982 178.208 57.3262 178.134 58.026C178.047 58.5855 177.77 58.9376 177.247 58.9488C176.724 58.9601 176.262 58.1899 176.396 57.4545C176.504 56.8982 176.827 56.5586 177.335 56.6699L177.339 56.6598ZM175.916 50.4721C176.521 50.5187 176.864 51.0421 176.744 51.7637C176.625 52.4854 176.276 52.8688 175.6 52.8164C174.909 52.6501 174.728 52.1122 174.861 51.4324C174.98 50.8487 175.296 50.4336 175.918 50.4884L175.916 50.4721ZM150.313 79.2463C149.554 79.5152 148.987 79.1666 148.596 78.4714C148.455 78.2057 148.345 77.9211 148.267 77.6239C147.423 74.7224 145.924 72.1257 143.91 70.0729C143.346 69.4739 142.907 68.7461 142.621 67.9371C141.856 65.8247 142.871 63.9956 144.961 63.7542C146.051 63.6324 147.087 63.9111 148.12 64.2475C149.844 64.796 151.532 65.4646 153.174 66.2496C154.913 67.1103 156.763 67.6434 158.573 68.2949C159.063 68.4194 159.563 68.4975 160.068 68.5285C160.455 68.0581 160.101 67.7082 159.928 67.3761C159.212 66.0567 158.309 64.8761 157.253 63.8774C155.465 62.1191 153.666 60.376 151.857 58.6481C150.771 57.6643 150.022 56.3008 149.726 54.77C149.293 52.4334 150.447 50.817 152.624 50.6927C153.19 50.6825 153.752 50.7578 154.295 50.9166C158.685 52.0005 162.868 53.8523 166.691 56.4032C167.39 56.9084 168.143 57.3183 168.935 57.6241C170.015 57.9944 170.325 57.7243 170.171 56.5328C169.95 54.8875 169.434 53.4057 168.284 52.3053C165.804 49.9304 163.604 47.217 160.93 45.0797C160.331 44.6013 159.225 43.9855 159.662 43.1887C160.243 42.133 161.193 43.104 161.861 43.4949C165.197 45.4383 167.965 48.2165 170.669 51.0485C172.108 52.5495 172.608 54.6418 172.778 56.7781C172.982 59.3734 171.163 61.0769 168.851 60.5804C167.85 60.3657 166.946 59.8796 166.044 59.3831C164.196 58.3646 162.325 57.3984 160.49 56.3556C158.273 55.0965 155.756 54.8572 153.436 53.9561C153.21 53.8679 152.872 53.754 152.695 54.1059C152.534 54.4177 152.686 54.7041 152.82 54.9745C153.124 55.4919 153.513 55.9396 153.969 56.295C155.813 57.9816 157.672 59.6492 159.496 61.3617C161.036 62.807 162.34 64.4782 163.197 66.5359C163.505 67.1949 163.696 67.9162 163.761 68.662C163.873 71.0042 162.468 72.4991 160.36 72.2123C157.449 71.8233 154.612 70.999 151.925 69.7618C150.331 69.0272 148.721 68.3378 146.936 68.0458C147.749 69.2794 148.514 70.4736 149.232 71.703C150.046 73.0309 150.681 74.4864 151.117 76.0256C151.254 76.495 151.338 76.9832 151.368 77.4792C151.385 78.3019 151.071 78.9826 150.313 79.2463Z" fill="white"/>
<path d="M249.586 168.659L243.623 167.112C238.453 187.035 224.883 203.763 206.391 213.007L209.146 218.517C229.231 208.478 243.971 190.305 249.586 168.659Z" fill="white"/>
<path d="M24.2324 136.621C24.6082 134.677 24.9723 132.855 25.3259 131.132L42.3451 137.393L44.4723 131.612L26.6246 125.045C28.9952 114.402 30.8347 108.715 32.3687 104.55C34.061 99.9471 37.4456 96.2791 41.8997 94.2215C46.3537 92.1639 51.3413 91.9643 55.9463 93.6597C60.5507 95.352 64.2193 98.7366 66.2769 103.191C68.334 107.644 68.5348 112.632 66.8425 117.235C66.6244 117.827 66.3034 118.612 65.8919 119.564L50.9298 114.059L48.8026 119.841L63.3205 125.183C61.0534 129.958 57.9405 136.186 54.4013 142.896H13.5617V149.227C13.5617 150.945 13.6129 152.683 13.7139 154.393C15.7383 188.804 37.7887 217.597 68.1214 229.719H10.9404V235.88H264.94V229.719H207.751C239.694 216.941 262.319 185.679 262.319 149.227V148.732C266.253 148.102 269.983 146.565 273.266 144.198C278.861 140.165 282.552 134.196 283.659 127.389C284.767 120.581 283.156 113.75 279.124 108.157C276.264 104.187 272.365 101.196 267.979 99.3927C269.529 97.1761 270.515 94.5714 270.762 91.8528C270.901 90.3496 270.819 88.8261 270.518 87.3186C268.8 78.8731 260.531 73.3951 252.082 75.1109C250.622 75.4078 249.229 75.9062 247.937 76.5826C247.913 76.4335 247.897 76.2845 247.872 76.1347C246.461 67.8771 241.919 60.6625 235.082 55.821C220.969 45.8261 201.356 49.1768 191.361 63.29C189.755 65.5583 188.486 68.0034 187.552 70.5508C173.618 67.1638 159.323 75.3684 155.329 89.2727C153.591 95.3162 154.027 101.809 156.557 107.554L162.195 105.072C160.244 100.643 159.909 95.6366 161.249 90.9749C162.78 85.6454 166.295 81.2308 171.145 78.5448C175.714 76.0165 180.952 75.3068 186.002 76.5105C184.92 83.3814 186.108 90.5695 189.63 96.8243L194.999 93.802C190.237 85.3454 190.782 74.7671 196.388 66.8508C200.278 61.3574 206.076 57.7073 212.711 56.5738C219.346 55.4402 226.027 56.9582 231.521 60.8492C237.014 64.7396 240.665 70.5367 241.798 77.1722C242.932 83.8077 241.413 90.4882 237.523 95.9816L242.551 99.5418C245.842 94.8955 247.764 89.5666 248.218 84.0375C249.563 82.5664 251.331 81.5505 253.309 81.1482C258.43 80.1101 263.439 83.4282 264.478 88.5384C264.662 89.4526 264.712 90.3767 264.628 91.2903C264.405 93.7465 263.191 96.0493 261.326 97.6437C258.746 97.3184 256.102 97.3659 253.476 97.8482L254.589 103.908C262.038 102.539 269.706 105.621 274.126 111.758C280.463 120.549 278.462 132.859 269.665 139.201C266.38 141.568 262.508 142.844 258.466 142.895H224.615C233.856 129.404 241.651 128.692 241.737 128.686L241.674 128.689L241.5 122.53C240.243 122.566 229.136 123.455 217.288 142.895H215.752C215.861 141.899 215.932 140.894 215.948 139.883C216.084 131.107 212.769 122.83 206.614 116.58C200.458 110.328 192.237 106.885 183.464 106.885C177.98 106.885 172.552 108.279 167.765 110.918C166.356 111.699 164.867 112.436 163.343 113.109C155.517 116.559 147.249 117.948 139.434 117.124C138.787 117.056 138.127 117.024 137.463 117.014C130.276 111.007 122.14 105.848 115.824 102.203C115.696 95.3168 116.305 88.3758 117.645 81.5622L118.367 77.8874H114.622C112.894 77.8874 108.479 78.2836 104.812 81.9509C104.462 82.3015 104.136 82.6692 103.829 83.0487C103.521 82.6692 103.195 82.3015 102.845 81.9509C99.1774 78.2829 94.7627 77.8874 93.0347 77.8874H89.2897L90.0117 81.5616C91.3516 88.3758 91.9597 95.3162 91.8328 102.199C86.5907 105.223 80.0957 109.288 73.9345 114.015C74.5247 109.479 73.8353 104.86 71.8701 100.606C70.4766 97.5901 68.5286 94.9435 66.1463 92.7701C67.5103 91.886 68.8194 90.8492 69.9696 89.8789C74.3972 86.1413 79.5326 80.6393 84.4302 74.387C89.3273 68.1365 93.4382 61.8336 96.0059 56.6397C98.1307 52.3415 100.548 46.3066 97.0175 43.5374C94.1417 41.2845 89.3839 43.1653 82.8297 49.1238C82.9203 48.2897 82.9911 47.4746 83.0355 46.6873C83.5524 37.4847 80.6267 34.4365 78.0812 33.5001C73.5797 31.8441 68.5502 36.0579 64.0826 42.7378C62.9829 33.6017 60.5563 28.9037 56.8316 28.7521C52.3812 28.5728 50.2798 34.7346 49.1124 39.3852C47.701 45.0049 46.7468 52.4684 46.4246 60.4019C46.1018 68.338 46.4461 75.8569 47.3955 81.5727C47.6487 83.098 47.9838 84.7866 48.4717 86.3822C45.3452 86.527 42.2446 87.2755 39.3172 88.6277C33.3685 91.3753 28.8479 96.2748 26.5882 102.421C24.4887 108.121 21.8483 116.504 18.184 135.45L24.2324 136.621ZM70.009 125.427C72.3094 123.232 74.8309 121.112 77.4374 119.106C73.4201 125.733 70.6472 133.451 70.6472 141.635C70.6472 142.056 70.6626 142.476 70.6713 142.897H61.3577C64.9623 135.971 67.9582 129.866 70.009 125.427ZM115.593 133.18H104.316V139.341H114.709C114.707 140.54 114.794 141.727 114.979 142.897H94.2224C94.2181 142.476 94.2113 142.056 94.2113 141.635C94.2113 127.395 98.1288 115.513 101.299 108.894V109.781H101.305L101.305 108.883C102.281 106.845 103.188 105.301 103.885 104.349C105.772 106.824 109.226 113.543 111.5 123.873L117.517 122.55C116.322 117.12 114.621 111.873 112.658 107.509C117.551 110.331 123.582 114.089 129.3 118.402C124.705 120.117 120.724 123.335 118.055 127.645C116.979 129.375 116.157 131.24 115.593 133.18ZM76.8318 142.897C76.822 142.476 76.8078 142.057 76.8078 141.635C76.8078 129.441 84.0883 119.462 88.4284 114.599C90.5434 112.229 92.6373 110.277 94.5791 108.705C94.1885 109.632 93.8214 110.559 93.4813 111.462C91.4533 116.849 88.0514 127.932 88.0514 141.635C88.0514 142.056 88.0582 142.476 88.0625 142.897H76.8318ZM256.158 149.227C256.158 193.612 220.049 229.72 175.665 229.72H100.215C57.6553 229.72 22.3609 196.474 19.864 154.032C19.7703 152.442 19.7229 150.825 19.7229 149.227V149.057H256.159V149.227H256.158ZM168.408 139.37C168.408 131.018 175.205 124.224 183.56 124.224C191.912 124.224 198.707 131.018 198.707 139.37C198.707 140.569 198.552 141.746 198.277 142.897H168.839C168.562 141.75 168.408 140.572 168.408 139.37ZM165.829 118.747C167.523 117.999 169.179 117.179 170.744 116.311C174.618 114.176 179.017 113.046 183.464 113.046C190.572 113.046 197.235 115.837 202.224 120.903C207.212 125.969 209.898 132.676 209.788 139.787C209.771 140.833 209.686 141.872 209.548 142.897H204.57C204.763 141.737 204.866 140.561 204.866 139.37C204.866 127.622 195.307 118.063 183.559 118.063C171.807 118.063 162.246 127.622 162.246 139.37C162.246 140.562 162.349 141.738 162.542 142.897H121.249C120.959 141.593 120.829 140.253 120.87 138.891C120.954 136.069 121.789 133.305 123.289 130.893C126.122 126.317 130.973 123.435 136.266 123.183C137.121 123.143 137.969 123.166 138.786 123.252C147.671 124.187 157.021 122.63 165.829 118.747ZM109.167 86.3089C109.687 85.7889 110.239 85.3879 110.786 85.0786C110.106 89.6276 109.73 94.2141 109.657 98.7902C108.561 98.2099 107.635 97.7324 106.908 97.3646V91.7634C106.908 89.7027 107.71 87.7659 109.167 86.3089ZM96.8696 85.0786C97.4167 85.3879 97.968 85.7889 98.488 86.3089C99.945 87.7659 100.747 89.7027 100.747 91.7634V97.364C100.021 97.7312 99.0911 98.2105 97.9982 98.7889C97.9255 94.2135 97.5504 89.6276 96.8696 85.0786ZM92.2985 49.5711C91.1477 53.1947 87.2548 60.7925 79.58 70.5896C77.6949 72.996 75.8856 75.146 74.1785 77.0545C75.6724 74.0648 77.0357 70.8878 78.2087 67.6997C79.1457 65.1548 79.9497 62.6234 80.6323 60.1487C86.0283 54.1625 90.0345 50.9473 92.2985 49.5711ZM75.9478 39.2996C77.2532 40.544 78.1058 50.1403 72.4283 65.5719C66.7495 81.0047 59.8798 87.7597 58.0797 87.8607C56.7743 86.6163 55.9211 77.02 61.5992 61.5878C67.278 46.1551 74.1477 39.4006 75.9478 39.2996ZM52.5802 60.6539C53.0847 48.2195 55.0456 39.9107 56.5174 36.4054C57.3737 38.9928 58.3748 44.2471 58.5652 52.7123L58.5991 52.7117C57.5893 54.9129 56.6554 57.1843 55.8176 59.4606C54.5029 63.0337 53.378 66.7528 52.542 70.3709C52.4379 67.4742 52.4342 64.232 52.5802 60.6539Z" fill="white"/>
<path d="M35.1291 114.808L43.2674 117.803L45.3945 112.021L37.2562 109.027L35.1291 114.808Z" fill="white"/>
<path d="M263.898 132.202C261.677 133.801 258.968 134.438 256.266 134L255.278 140.081C256.169 140.225 257.061 140.297 257.946 140.297C261.358 140.297 264.675 139.234 267.498 137.202C271.053 134.641 273.398 130.849 274.102 126.524C274.805 122.2 273.782 117.86 271.222 114.305L266.223 117.905C267.822 120.125 268.461 122.835 268.021 125.536C267.582 128.235 266.117 130.603 263.898 132.202ZM210.821 72.9621L212.523 67.0412C205.462 65.0125 198.063 69.1049 196.033 76.1668C194.003 83.2292 198.097 90.6262 205.159 92.6567L206.861 86.7358C203.063 85.6442 200.863 81.6663 201.954 77.8689C203.045 74.0716 207.023 71.8704 210.821 72.9621Z" fill="white"/>
<path d="M237.585 36.7144C238.405 38.2053 240.277 38.7495 241.768 37.9301C243.259 37.1106 243.803 35.2378 242.984 33.747L242.629 33.1023C241.614 31.2555 242.289 28.9354 244.135 27.9203L244.781 27.5657C246.271 26.7462 246.816 24.8734 245.996 23.3826C245.177 21.8918 243.304 21.3475 241.813 22.167L241.168 22.5214C239.321 23.5366 237.001 22.8624 235.986 21.0154L235.631 20.3705C234.812 18.8797 232.939 18.3354 231.448 19.1549C229.957 19.9743 229.413 21.8472 230.233 23.338L230.587 23.9831C231.602 25.83 230.928 28.15 229.081 29.1652L228.437 29.5195C226.946 30.3389 226.402 32.2118 227.221 33.7026C228.04 35.1934 229.913 35.7377 231.404 34.9182L232.049 34.5639C233.896 33.5488 236.216 34.223 237.231 36.0698L237.585 36.7144Z" fill="white"/>
<path d="M231.744 35.1812C231.325 36.8301 232.323 38.5062 233.971 38.9249C235.62 39.3437 237.296 38.3465 237.715 36.6976L237.896 35.9847C238.415 33.9421 240.491 32.7068 242.534 33.2255L243.247 33.4067C244.896 33.8254 246.572 32.8282 246.991 31.1794C247.41 29.5305 246.413 27.8544 244.764 27.4357L244.051 27.2545C242.008 26.7358 240.772 24.6592 241.291 22.6165L241.472 21.9032C241.891 20.2544 240.894 18.5783 239.245 18.1596C237.596 17.7408 235.92 18.738 235.501 20.3869L235.32 21.1004C234.801 23.143 232.725 24.3783 230.682 23.8596L229.969 23.6786C228.321 23.2598 226.644 24.257 226.226 25.9059C225.807 27.5547 226.804 29.2308 228.453 29.6496L229.166 29.8306C231.209 30.3493 232.444 32.4257 231.925 34.4683L231.744 35.1812Z" fill="white"/>
<path d="M119.245 54.735C119.87 55.8725 121.299 56.2877 122.437 55.6625C123.574 55.0373 123.989 53.6084 123.364 52.471L123.094 51.9792C122.319 50.5701 122.834 48.8 124.243 48.0255L124.735 47.7549C125.872 47.1297 126.288 45.7008 125.662 44.5634C125.037 43.426 123.608 43.0107 122.471 43.6359L121.979 43.9064C120.57 44.6809 118.799 44.1665 118.025 42.7573L117.754 42.2653C117.129 41.1279 115.7 40.7126 114.563 41.3379C113.426 41.9631 113.01 43.392 113.635 44.5294L113.906 45.0216C114.681 46.4306 114.166 48.2008 112.757 48.9753L112.265 49.2456C111.128 49.8708 110.713 51.2997 111.338 52.4371C111.963 53.5746 113.392 53.9898 114.529 53.3646L115.021 53.0943C116.43 52.3198 118.2 52.8342 118.975 54.2432L119.245 54.735Z" fill="white"/>
<path d="M114.789 53.5653C114.469 54.8233 115.23 56.1021 116.488 56.4215C117.746 56.741 119.025 55.9802 119.344 54.7222L119.483 54.1783C119.878 52.6198 121.462 51.6773 123.021 52.0731L123.565 52.2114C124.823 52.5308 126.102 51.77 126.422 50.512C126.741 49.254 125.98 47.9752 124.722 47.6557L124.178 47.5175C122.619 47.1217 121.677 45.5374 122.073 43.9789L122.211 43.4347C122.53 42.1767 121.77 40.8979 120.512 40.5785C119.254 40.259 117.975 41.0198 117.655 42.2778L117.517 42.8222C117.121 44.3806 115.537 45.3231 113.979 44.9274L113.435 44.7892C112.177 44.4697 110.898 45.2306 110.578 46.4886C110.259 47.7466 111.02 49.0254 112.278 49.3448L112.822 49.483C114.38 49.8787 115.323 51.4629 114.927 53.0213L114.789 53.5653Z" fill="white"/>
<path d="M39.1175 19.3131C39.937 20.8039 41.8098 21.3482 43.3007 20.5287C44.7915 19.7093 45.3357 17.8364 44.5163 16.3456L44.162 15.701C43.1468 13.8542 43.8211 11.5341 45.6679 10.5189L46.313 10.1643C47.8039 9.34487 48.3481 7.47203 47.5287 5.98121C46.7092 4.49039 44.8364 3.94613 43.3455 4.76558L42.7007 5.12005C40.8537 6.13527 38.5334 5.46099 37.5182 3.61401L37.1637 2.96913C36.3443 1.47831 34.4714 0.934061 32.9806 1.75351C31.4898 2.57296 30.9455 4.4458 31.765 5.93662L32.1196 6.58178C33.1347 8.4286 32.4605 10.7487 30.6137 11.7638L29.9691 12.1181C28.4783 12.9376 27.934 14.8104 28.7535 16.3012C29.5729 17.7921 31.4458 18.3363 32.9366 17.5169L33.5812 17.1626C35.428 16.1474 37.7481 16.8216 38.7632 18.6685L39.1175 19.3131Z" fill="white"/>
<path d="M33.2766 17.7799C32.8579 19.4287 33.8551 21.1048 35.5039 21.5236C37.1528 21.9423 38.8289 20.9451 39.2476 19.2963L39.4287 18.5833C39.9474 16.5407 42.0237 15.3054 44.0663 15.8241L44.7799 16.0053C46.4287 16.4241 48.1048 15.4269 48.5236 13.778C48.9423 12.1292 47.9451 10.4531 46.2963 10.0343L45.583 9.85318C43.5403 9.33441 42.3048 7.25788 42.8236 5.21512L43.0047 4.50188C43.4235 2.85303 42.4263 1.17692 40.7774 0.758189C39.1286 0.339452 37.4525 1.33666 37.0337 2.98551L36.8525 3.69904C36.3338 5.74164 34.2574 6.97697 32.2148 6.45824L31.5019 6.27719C29.853 5.85845 28.1769 6.85565 27.7582 8.5045C27.3395 10.1534 28.3367 11.8295 29.9855 12.2482L30.6984 12.4293C32.741 12.948 33.9764 15.0243 33.4576 17.0669L33.2766 17.7799Z" fill="white"/>
<path d="M300.118 97.3131C300.937 98.8039 302.81 99.3482 304.301 98.5287C305.791 97.7093 306.336 95.8364 305.516 94.3456L305.162 93.701C304.147 91.8542 304.821 89.5341 306.668 88.5189L307.313 88.1643C308.804 87.3449 309.348 85.472 308.529 83.9812C307.709 82.4904 305.836 81.9461 304.346 82.7656L303.701 83.1201C301.854 84.1353 299.533 83.461 298.518 81.614L298.164 80.9691C297.344 79.4783 295.471 78.9341 293.981 79.7535C292.49 80.573 291.946 82.4458 292.765 83.9366L293.12 84.5818C294.135 86.4286 293.461 88.7487 291.614 89.7638L290.969 90.1181C289.478 90.9376 288.934 92.8104 289.753 94.3012C290.573 95.7921 292.446 96.3363 293.937 95.5169L294.581 95.1626C296.428 94.1474 298.748 94.8216 299.763 96.6685L300.118 97.3131Z" fill="white"/>
<path d="M294.277 95.7799C293.858 97.4287 294.855 99.1048 296.504 99.5236C298.153 99.9423 299.829 98.9451 300.248 97.2963L300.429 96.5833C300.947 94.5407 303.024 93.3054 305.066 93.8241L305.78 94.0053C307.429 94.4241 309.105 93.4269 309.524 91.778C309.942 90.1292 308.945 88.4531 307.296 88.0343L306.583 87.8532C304.54 87.3344 303.305 85.2579 303.824 83.2151L304.005 82.5019C304.423 80.853 303.426 79.1769 301.777 78.7582C300.129 78.3395 298.452 79.3367 298.034 80.9855L297.853 81.699C297.334 83.7416 295.257 84.977 293.215 84.4582L292.502 84.2772C290.853 83.8584 289.177 84.8557 288.758 86.5045C288.339 88.1534 289.337 89.8295 290.986 90.2482L291.698 90.4293C293.741 90.948 294.976 93.0243 294.458 95.0669L294.277 95.7799Z" fill="white"/>
</g>
<defs>
<filter id="filter0_d" x="0.94043" y="0.662598" width="314.679" height="251.217" filterUnits="userSpaceOnUse" color-interpolation-filters="sRGB">
<feFlood flood-opacity="0" result="BackgroundImageFix"/>
<feColorMatrix in="SourceAlpha" type="matrix" values="0 0 0 0 0 0 0 0 0 0 0 0 0 0 0 0 0 0 127 0"/>
<feOffset dx="-2" dy="8"/>
<feGaussianBlur stdDeviation="4"/>
<feColorMatrix type="matrix" values="0 0 0 0 0 0 0 0 0 0 0 0 0 0 0 0 0 0 0.15 0"/>
<feBlend mode="normal" in2="BackgroundImageFix" result="effect1_dropShadow"/>
<feBlend mode="normal" in="SourceGraphic" in2="effect1_dropShadow" result="shape"/>
</filter>
</defs>
</svg>
