<svg width="50" height="50" viewBox="0 0 50 50" fill="none" xmlns="http://www.w3.org/2000/svg">
<path d="M14.4343 21.1674C14.5992 21.1619 14.7603 21.117 14.9043 21.0363C15.0482 20.9556 15.1706 20.8416 15.2614 20.7038C15.3541 20.5635 15.4125 20.4034 15.432 20.2363C15.4516 20.0692 15.4316 19.8999 15.3737 19.742C15.0796 18.9333 13.7481 18.9333 13.4561 19.742L13.4357 19.7971C13.3827 19.953 13.3678 20.1192 13.3923 20.2819C13.4169 20.4447 13.48 20.5992 13.5766 20.7324C13.6754 20.8672 13.8045 20.9768 13.9535 21.0524C14.1025 21.1279 14.2672 21.1673 14.4343 21.1674Z" fill="#E8002A"/>
<path d="M35.6664 41.162C35.7612 41.0302 35.8229 40.8776 35.8464 40.7169C35.8698 40.5563 35.8543 40.3924 35.8012 40.239L22.5274 1.43862C22.4587 1.23686 22.3287 1.06162 22.1555 0.937477C21.9823 0.813331 21.7745 0.746496 21.5614 0.746338H5.22445C3.87093 0.747959 2.57332 1.28636 1.61624 2.24344C0.659162 3.20052 0.120762 4.49813 0.119141 5.85165L0.119141 36.4835C0.119141 39.2975 2.4104 41.5888 5.22445 41.5888H34.8352C34.9977 41.5889 35.1579 41.5503 35.3025 41.476C35.447 41.4018 35.5718 41.2941 35.6664 41.162ZM8.34686 27.9719L13.4522 13.6771C13.7421 12.8684 15.0879 12.8684 15.3758 13.6771L20.4812 27.9719C20.5712 28.2268 20.5569 28.5069 20.4414 28.7513C20.3258 28.9957 20.1185 29.1846 19.8644 29.2768C19.6093 29.3669 19.3289 29.3527 19.0842 29.2372C18.8394 29.1217 18.6502 28.9143 18.5575 28.6601L16.8543 23.8897C16.7839 23.6909 16.6536 23.5188 16.4814 23.397C16.3091 23.2753 16.1034 23.2098 15.8925 23.2097H12.9355C12.7248 23.2097 12.5193 23.2748 12.3471 23.3962C12.1749 23.5176 12.0445 23.6892 11.9737 23.8877L10.2685 28.6581C10.1757 28.9119 9.98692 29.119 9.74278 29.2348C9.49864 29.3505 9.21877 29.3656 8.96358 29.2768C8.70951 29.1846 8.50216 28.9957 8.38666 28.7513C8.27116 28.5069 8.25685 28.2268 8.34686 27.9719ZM33.4303 26.5302C33.5628 26.6286 33.6688 26.7584 33.7386 26.908C33.9408 27.4083 34.3717 28.0577 35.0946 28.9481C35.1902 29.0667 35.3112 29.1625 35.4486 29.2282C35.5861 29.2939 35.7366 29.328 35.889 29.3279H35.9216C36.079 29.3226 36.2331 29.2811 36.3719 29.2067C36.5107 29.1324 36.6305 29.0271 36.7222 28.899C37.6942 27.5308 38.5682 26.0217 39.185 24.6514C39.2537 24.4956 39.2826 24.3251 39.2691 24.1553C39.2556 23.9855 39.2 23.8217 39.1074 23.6787C39.0149 23.5357 38.8882 23.418 38.7388 23.3361C38.5894 23.2542 38.4221 23.2108 38.2517 23.2097H33.563C33.4007 23.2098 33.2409 23.2486 33.0966 23.3228C32.9523 23.3971 32.8278 23.5046 32.7334 23.6366C32.639 23.7685 32.5774 23.9211 32.5536 24.0816C32.5299 24.2421 32.5448 24.4059 32.5971 24.5595L33.1137 26.0728C33.175 26.2525 33.2853 26.4097 33.4303 26.5302Z" fill="#E8002A"/>
<path d="M44.0249 8.91479H28.6722C28.5099 8.91491 28.35 8.9537 28.2058 9.02793C28.0615 9.10217 27.937 9.20972 27.8426 9.34166C27.7482 9.47361 27.6865 9.62616 27.6628 9.78667C27.6391 9.94718 27.654 10.111 27.7063 10.2646L31.1983 20.4753C31.3412 20.8898 31.7292 21.1675 32.1642 21.1675H33.8142C34.085 21.1675 34.3448 21.06 34.5362 20.8685C34.7277 20.677 34.8353 20.4173 34.8353 20.1465C34.8353 19.8757 34.9429 19.616 35.1344 19.4245C35.3259 19.233 35.5856 19.1254 35.8564 19.1254C36.1272 19.1254 36.3869 19.233 36.5784 19.4245C36.7699 19.616 36.8774 19.8757 36.8774 20.1465C36.8774 20.4173 36.985 20.677 37.1765 20.8685C37.368 21.06 37.6277 21.1675 37.8985 21.1675H44.0249C44.2957 21.1675 44.5554 21.2751 44.7469 21.4666C44.9383 21.6581 45.0459 21.9178 45.0459 22.1886C45.0459 22.4594 44.9383 22.7191 44.7469 22.9106C44.5554 23.1021 44.2957 23.2097 44.0249 23.2097H42.6056C42.3869 23.2097 42.1741 23.28 41.9983 23.4102C41.8226 23.5403 41.6933 23.7234 41.6294 23.9326C41.0107 25.9522 39.6037 28.511 37.8638 30.7798C37.7147 30.9739 37.6403 31.2152 37.6542 31.4596C37.668 31.704 37.7692 31.9352 37.9393 32.1113C39.1415 33.3532 40.3788 34.5606 41.6499 35.732C41.7488 35.8222 41.8289 35.9311 41.8857 36.0523C41.9424 36.1736 41.9747 36.3049 41.9805 36.4387C41.9864 36.5724 41.9658 36.706 41.92 36.8318C41.8741 36.9576 41.8038 37.0731 41.7132 37.1717C41.5269 37.366 41.2729 37.4811 41.004 37.4929C40.735 37.5047 40.4719 37.4123 40.2694 37.235C39.9345 36.9286 39.2238 36.269 38.3518 35.4216C38.1881 35.2592 37.974 35.1572 37.7448 35.1323C37.5155 35.1073 37.2846 35.1608 37.0897 35.2841C36.8948 35.4074 36.7475 35.5932 36.6719 35.811C36.5962 36.0289 36.5967 36.2659 36.6732 36.4835L37.731 39.5752C37.8894 40.0363 37.9354 40.5284 37.8652 41.0108C37.7949 41.4932 37.6105 41.9518 37.3272 42.3485C37.044 42.7452 36.6701 43.0686 36.2366 43.2916C35.8032 43.5147 35.3228 43.631 34.8353 43.6309H26.1563C25.9915 43.631 25.8291 43.671 25.6831 43.7475C25.5372 43.824 25.4119 43.9347 25.3179 44.0702C25.224 44.2056 25.1643 44.3618 25.1439 44.5253C25.1234 44.6889 25.1429 44.8549 25.2006 45.0093L26.7322 49.0936C26.8049 49.2883 26.9354 49.4563 27.1062 49.5749C27.277 49.6935 27.4799 49.7571 27.6879 49.7573H44.0249C46.8389 49.7573 49.1302 47.466 49.1302 44.652V14.0201C49.1302 11.2061 46.8389 8.91479 44.0249 8.91479Z" fill="black"/>
</svg>
