<svg width="139" height="139" viewBox="0 0 139 139" fill="none" xmlns="http://www.w3.org/2000/svg">
    <path
        d="M136.758 26.9032C135.413 26.9032 134.516 27.8 134.516 29.1452V82.7274C134.516 83.8484 133.619 85.1936 132.05 85.1936H105.371C104.026 85.1936 103.129 86.0903 103.129 87.4355C103.129 88.7806 104.026 89.6774 105.371 89.6774H132.05C135.861 89.6774 139 86.5387 139 82.7274V29.1452C139 27.8 138.103 26.9032 136.758 26.9032ZM132.05 0H100.215C98.8694 0 97.9726 0.896774 97.9726 2.24194C97.9726 3.5871 98.8694 4.48387 100.215 4.48387H132.05C133.395 4.48387 134.516 5.60484 134.516 6.95V20.6258C134.516 21.971 135.413 22.8677 136.758 22.8677C138.103 22.8677 139 21.971 139 20.6258V6.95C139 3.13871 135.861 0 132.05 0ZM2.24194 49.3226C3.5871 49.3226 4.48387 48.4258 4.48387 47.0806V6.95C4.48387 5.60484 5.60484 4.48387 6.95 4.48387H91.471C92.8161 4.48387 93.7129 3.5871 93.7129 2.24194C93.7129 0.896774 92.8161 0 91.471 0H6.95C3.13871 0 0 3.13871 0 6.95V47.0806C0 48.4258 0.896774 49.3226 2.24194 49.3226ZM2.24194 63.2226C3.5871 63.2226 4.48387 62.3258 4.48387 60.9806V56.0484C4.48387 54.7032 3.5871 53.8064 2.24194 53.8064C0.896774 53.8064 0 54.7032 0 56.0484V60.9806C0 62.3258 0.896774 63.2226 2.24194 63.2226ZM35.871 87.4355C35.871 86.0903 34.9742 85.1936 33.629 85.1936H6.72581C5.38065 85.1936 4.48387 84.0726 4.48387 82.7274V69.5C4.48387 68.1548 3.5871 67.2581 2.24194 67.2581C0.896774 67.2581 0 68.1548 0 69.5V82.7274C0 86.5387 2.91452 89.6774 6.72581 89.6774H33.629C34.9742 89.6774 35.871 88.7806 35.871 87.4355Z"
        fill="black" />
    <path
        d="M126.669 9.19194L103.129 23.7645C102.008 24.4371 101.784 25.7823 102.456 26.9032C102.905 27.5758 103.577 28.0242 104.474 28.0242C104.923 28.0242 105.371 28.0242 105.595 27.8L129.135 13.4516C130.256 12.779 130.481 11.4339 129.808 10.3129C129.135 8.96774 127.566 8.74355 126.669 9.19194ZM69.5 44.3903L12.3306 9.19194C11.4339 8.74355 9.86452 8.96774 9.19194 10.0887C8.74355 10.9855 8.96774 12.5548 10.0887 13.2274L68.379 49.0984C68.6032 49.3226 69.0516 49.3226 69.5 49.3226C69.9484 49.3226 70.3968 49.3226 70.621 49.0984L95.7306 33.629C96.8516 32.9565 97.0758 31.6113 96.4032 30.4903C95.7306 29.3694 94.3855 29.1452 93.2645 29.8177L69.5 44.3903ZM101.111 94.1613H98.6452V82.9516C98.6452 66.8097 85.6419 53.8064 69.5 53.8064C66.1371 53.8064 62.9984 54.479 59.8597 55.3758C58.7387 55.8242 58.0661 57.1694 58.5145 58.2903C58.9629 59.4113 60.3081 60.0839 61.429 59.6355C64.1194 58.7387 66.8097 58.2903 69.7242 58.2903C83.4 58.2903 94.3855 69.2758 94.3855 82.9516V94.1613H89.9016V82.9516C89.9016 81.1581 89.6774 79.5887 89.229 77.7952C89.0048 76.6742 87.6597 75.7774 86.5387 76.2258C85.4177 76.45 84.521 77.7952 84.9694 78.9161C85.1936 80.2613 85.4177 81.6065 85.4177 82.9516V94.1613H53.8064V82.9516C53.8064 74.2081 60.7565 67.2581 69.5 67.2581C73.9839 67.2581 78.2435 69.2758 81.3823 72.6387C82.279 73.5355 83.6242 73.7597 84.521 72.8629C85.4177 71.9661 85.6419 70.621 84.7452 69.7242C80.7097 65.2403 75.329 62.7742 69.5 62.7742C58.2903 62.7742 49.3226 71.7419 49.3226 82.9516V94.1613H44.8387V82.9516C44.8387 76.0016 47.7532 69.2758 53.1339 64.5677C54.0306 63.671 54.0306 62.3258 53.3581 61.429C52.6855 60.5323 51.1161 60.5323 50.2194 61.2048C43.9419 66.8097 40.579 74.6564 40.579 82.9516V94.1613H38.1129C34.3016 94.1613 31.6113 96.8516 31.6113 100.663V132.498C31.6113 135.861 34.75 139 38.1129 139H47.0806C48.4258 139 49.3226 138.103 49.3226 136.758C49.3226 135.413 48.4258 134.516 47.0806 134.516H37.8887C36.9919 134.516 35.871 133.395 35.871 132.498V100.663C35.871 99.5419 36.7677 98.6452 37.8887 98.6452H101.111C102.232 98.6452 103.129 99.5419 103.129 100.663V132.498C103.129 133.844 102.008 134.516 101.111 134.516H55.6C54.2548 134.516 53.3581 135.413 53.3581 136.758C53.3581 138.103 54.2548 139 55.6 139H101.111C104.698 139 107.613 136.085 107.613 132.498V100.663C107.613 96.8516 104.923 94.1613 101.111 94.1613Z"
        fill="black" />
    <path
        d="M69.5 125.548C70.8452 125.548 71.7419 124.652 71.7419 123.306V116.132C74.4323 115.235 76.2258 112.769 76.2258 109.855C76.2258 106.044 73.3113 103.129 69.5 103.129C65.6887 103.129 62.7742 106.044 62.7742 109.855C62.7742 112.769 64.5677 115.235 67.2581 116.132V123.306C67.2581 124.652 68.1548 125.548 69.5 125.548ZM69.5 107.613C70.8452 107.613 71.7419 108.51 71.7419 109.855C71.7419 111.2 70.8452 112.097 69.5 112.097C68.1548 112.097 67.2581 111.2 67.2581 109.855C67.2581 108.51 68.1548 107.613 69.5 107.613ZM60.5323 85.1936C59.1871 85.1936 58.2903 86.0903 58.2903 87.4355C58.2903 88.7806 59.1871 89.6774 60.5323 89.6774H78.6919C80.0371 89.6774 80.9339 88.7806 80.9339 87.4355C80.9339 86.0903 80.0371 85.1936 78.6919 85.1936H60.5323ZM94.1613 124.203C94.1613 124.876 93.4887 125.548 92.8161 125.548H82.9516C81.6065 125.548 80.7097 126.445 80.7097 127.79C80.7097 129.135 81.6065 130.032 82.9516 130.032H92.8161C96.179 130.032 98.6452 127.566 98.6452 124.203V123.306C98.6452 121.961 97.7484 121.065 96.4032 121.065C95.0581 121.065 94.1613 121.961 94.1613 123.306V124.203ZM96.4032 116.581C97.7484 116.581 98.6452 115.684 98.6452 114.339V109.855C98.6452 108.51 97.7484 107.613 96.4032 107.613C95.0581 107.613 94.1613 108.51 94.1613 109.855V114.339C94.1613 115.684 95.0581 116.581 96.4032 116.581ZM33.629 13.4516C34.9742 13.4516 35.871 12.5548 35.871 11.2097C35.871 9.86452 34.9742 8.96774 33.629 8.96774H29.1452C27.8 8.96774 26.9032 9.86452 26.9032 11.2097C26.9032 12.5548 27.8 13.4516 29.1452 13.4516H33.629ZM60.5323 13.4516C61.8774 13.4516 62.7742 12.5548 62.7742 11.2097C62.7742 9.86452 61.8774 8.96774 60.5323 8.96774H42.5968C41.2516 8.96774 40.3548 9.86452 40.3548 11.2097C40.3548 12.5548 41.2516 13.4516 42.5968 13.4516H60.5323ZM127.79 67.2581C126.445 67.2581 125.548 68.1548 125.548 69.5V75.5532C125.548 75.7774 125.1 76.2258 124.876 76.2258H114.339C112.994 76.2258 112.097 77.1226 112.097 78.4677C112.097 79.8129 112.994 80.7097 114.339 80.7097H124.876C127.566 80.7097 130.032 78.2436 130.032 75.5532V69.5C130.032 68.1548 129.135 67.2581 127.79 67.2581Z"
        fill="black" />
    <path
        d="M13.4098 68.1227C13.4098 66.6708 13.7426 66.6298 13.882 66.3969V64.0548H8V66.3558C8.26981 66.5202 8.42721 67.2279 8.47218 67.5611L8.47218 73.3274C8.47218 74.7793 8.13941 74.8204 8 75.0532V77.3953H13.882V75.0943C13.6121 74.9299 13.4547 74.2223 13.4098 73.889V68.1227Z"
        fill="black" />
    <path
        d="M15.7707 64V69.1089C16.0965 69.1856 16.2776 68.7117 16.3274 68.4651L16.5718 65.6025C16.8298 64.3013 16.2323 64.0274 15.7707 64Z"
        fill="black" />
    <path
        d="M15.7707 64.0137V69.1006C15.4448 69.177 15.2637 68.7051 15.214 68.4596L14.9695 65.6093C14.7116 64.3137 15.309 64.041 15.7707 64.0137Z"
        fill="black" />
    <path
        d="M31.4997 68.1228C31.467 70.4504 31.4376 73.9286 31.5134 74.2556C31.5159 74.2662 31.5183 74.2766 31.5206 74.2867L31.5216 74.2911L31.5218 74.2921C31.6009 74.6344 31.6218 74.7249 32 75.1331V77.3543H27.5126V75.1331C27.8911 74.7821 28.0127 74.4019 28.0263 74.2556V70.3755L25.3626 77.3543H23.5548L21.6256 70.3963V74.2725C21.6391 74.4186 21.7605 74.7985 22.1383 75.1491V77.3543H17.6594V75.1491C17.7853 75.0121 18.0587 74.6451 18.145 74.2725C18.2314 73.9 18.181 69.433 18.145 67.2461C18.1495 67.0954 18.0695 66.701 17.7133 66.3284V64.0274H23.5548L24.8229 69.2869V69.2649L25.3626 64H29.1499C29.0627 64.0208 28.9651 64.067 28.8869 64.1614C28.7804 64.2901 28.7206 64.4953 28.7555 64.8115C28.7588 64.8407 28.7462 64.8711 28.7218 64.8906C28.5627 65.0179 28.3671 65.2404 28.2929 65.4865C28.2553 65.6112 28.248 65.7452 28.2962 65.8756C28.3446 66.0062 28.4458 66.1251 28.6104 66.2248C28.639 66.2421 28.6529 66.2709 28.6502 66.2967L28.6485 66.3123C28.6274 66.5157 28.5979 66.7984 28.6827 67.0316C28.7267 67.1524 28.8016 67.2617 28.9237 67.3402C29.0449 67.4181 29.207 67.462 29.4197 67.463C29.4529 67.4631 29.4808 67.483 29.4911 67.5104C29.5617 67.6976 29.6315 67.8632 29.7663 67.9675C29.9044 68.0744 30.0965 68.1076 30.3872 68.0728C30.4086 68.0703 30.4311 68.0771 30.4493 68.0925C30.5623 68.1884 30.7326 68.2971 30.9285 68.3246C31.1125 68.3504 31.3127 68.3036 31.4997 68.1228Z"
        fill="black" />
    <path
        d="M12.796 78.6757H12.4963V80.6573H12.796V81.3795H10.5299V80.6573H10.8177V79.9307H9.97836V80.6573H10.2661V81.3795H8V80.6573H8.29975V78.6757H8V77.9536H10.2661V78.6757H9.97836V79.3451H10.8177V78.6757H10.5299V77.9536H12.796V78.6757Z"
        fill="black" />
    <path
        d="M16.9676 80.6573V81.3795H15.325V81.036C15.0372 81.3061 14.6775 81.4411 14.2459 81.4411C13.9142 81.4411 13.6644 81.3648 13.4965 81.2121C13.3326 81.0595 13.2507 80.8496 13.2507 80.5824V79.6533H12.9869V78.9311H14.6296V80.3755C14.6296 80.4724 14.6575 80.5443 14.7135 80.5913C14.7734 80.6353 14.8614 80.6573 14.9773 80.6573C15.0932 80.6573 15.1791 80.6353 15.2351 80.5913C15.295 80.5443 15.325 80.4724 15.325 80.3755V79.6533H15.0013V78.9311H16.7038V80.6573H16.9676Z"
        fill="black" />
    <path
        d="M21.1135 80.6573V81.3795H19.219V80.6573H19.4708V79.9351C19.4708 79.8383 19.4428 79.7678 19.3869 79.7238C19.3309 79.6768 19.247 79.6533 19.1351 79.6533C18.8953 79.6533 18.7754 79.7473 18.7754 79.9351V80.6573H19.0272V81.3795H17.1328V80.6573H17.3965V79.6533H17.1328V78.9311H18.7754V79.2746C19.0632 79.0045 19.4229 78.8695 19.8545 78.8695C20.1862 78.8695 20.434 78.9458 20.5979 79.0985C20.7657 79.2511 20.8497 79.461 20.8497 79.7282V80.6573H21.1135Z"
        fill="black" />
    <path
        d="M23.0636 82.4187C22.7758 82.4187 22.5 82.404 22.2363 82.3747C21.9765 82.3453 21.7746 82.3115 21.6308 82.2734V81.5512C22.0544 81.607 22.4341 81.6349 22.7698 81.6349C22.9976 81.6349 23.1615 81.6085 23.2614 81.5556C23.3653 81.5057 23.4173 81.4103 23.4173 81.2694V81.08C23.3174 81.174 23.1875 81.2576 23.0276 81.331C22.8717 81.4044 22.6919 81.4411 22.4881 81.4411C22.0804 81.4411 21.7726 81.3296 21.5648 81.1065C21.361 80.8834 21.2591 80.5663 21.2591 80.1553C21.2591 79.7443 21.361 79.4273 21.5648 79.2042C21.7726 78.9811 22.0804 78.8695 22.4881 78.8695C22.6919 78.8695 22.8717 78.9062 23.0276 78.9796C23.1875 79.053 23.3174 79.1366 23.4173 79.2306V78.9311H25.0599V79.6533H24.7961V81.2033C24.7961 81.629 24.6523 81.9372 24.3645 82.1281C24.0767 82.3218 23.6431 82.4187 23.0636 82.4187ZM23.0696 80.6573C23.1855 80.6573 23.2714 80.6353 23.3274 80.5913C23.3873 80.5443 23.4173 80.4724 23.4173 80.3755V79.9351C23.4173 79.8383 23.3873 79.7678 23.3274 79.7238C23.2714 79.6768 23.1855 79.6533 23.0696 79.6533C22.9537 79.6533 22.8657 79.6768 22.8058 79.7238C22.7498 79.7678 22.7219 79.8383 22.7219 79.9351V80.3755C22.7219 80.4724 22.7498 80.5443 22.8058 80.5913C22.8657 80.6353 22.9537 80.6573 23.0696 80.6573Z"
        fill="black" />
    <path
        d="M27.7894 78.8695C27.8694 78.8695 27.9453 78.8754 28.0172 78.8871C28.0892 78.8988 28.1491 78.9135 28.1971 78.9311V79.7722C28.0332 79.7223 27.8574 79.6973 27.6695 79.6973C27.4177 79.6973 27.2239 79.7458 27.088 79.8427C26.9521 79.9395 26.8842 80.0834 26.8842 80.2742V80.6573H27.4237V81.3795H25.2415V80.6573H25.5053V79.6533H25.2415V78.9311H26.8842V79.2526C26.9961 79.1293 27.124 79.0354 27.2679 78.9708C27.4117 78.9033 27.5856 78.8695 27.7894 78.8695Z"
        fill="black" />
    <path
        d="M32 78.9311V79.6533H31.7722L30.9868 81.1813C30.791 81.5659 30.5672 81.8536 30.3154 82.0444C30.0636 82.2381 29.7319 82.335 29.3202 82.335C29.1524 82.335 28.9825 82.3218 28.8106 82.2954C28.6388 82.2719 28.4829 82.2382 28.343 82.1941V81.3971H29.1703V81.4411C29.1703 81.5145 29.2223 81.5512 29.3262 81.5512C29.4181 81.5512 29.4881 81.5189 29.536 81.4543L28.5888 79.6533H28.361V78.9311H30.1415V79.6533H29.9377L30.2495 80.3403L30.5372 79.6533H30.3334V78.9311H32Z"
        fill="black" />
</svg>
