<svg width="7" height="7" viewBox="0 0 7 7" fill="none" xmlns="http://www.w3.org/2000/svg">
    <path
        d="M6.5 3.69058C6.5 3.28898 6.42984 2.9043 6.30118 2.54825C6.21324 3.59734 5.66399 4.13619 5.09007 3.88526C4.55229 3.65009 4.91476 2.73338 4.94153 2.29596C4.98665 1.55445 4.93924 0.705685 3.61649 0C4.16612 1.07069 3.68015 1.73569 3.17028 1.77638C2.60478 1.82115 2.08707 1.28152 2.27825 0.405501C1.65922 0.869987 1.64106 1.65179 1.83204 2.15755C2.03125 2.68472 1.82421 3.12273 1.33824 3.17139C0.795485 3.2259 0.493809 2.5794 0.771971 1.5492C0.290588 2.1264 0 2.87394 0 3.69058C0 5.51835 1.45504 7 3.25 7C5.04496 7 6.5 5.51835 6.5 3.69058Z"
        fill="#DA2327" />
    <path
        d="M5.5 4.65469C5.5 4.22726 5.3905 3.8268 5.19906 3.48184C5.22662 4.08459 4.71869 4.32088 4.44531 4.20674C4.05063 4.04198 4.15637 3.75898 4.05475 3.17265C3.95312 2.58633 3.56256 2.17903 2.98431 2C3.40619 3.23774 2.7505 3.6939 2.40681 3.7754C2.05581 3.85866 1.70312 3.7752 1.66281 2.99226C1.2535 3.41715 1 4.00504 1 4.65469C1 5.94989 2.00744 7 3.25 7C4.49256 7 5.5 5.94989 5.5 4.65469Z"
        fill="#901B1E" />
</svg>
