<svg width="51" height="52" viewBox="0 0 51 52" fill="none" xmlns="http://www.w3.org/2000/svg">
    <path
        d="M1.25276 30.9159L31.4936 0.998574C31.6808 0.813359 31.9336 0.709473 32.1969 0.709473H48.493C49.3787 0.709473 49.8272 1.77593 49.2076 2.40894L2.67072 49.9575C2.04393 50.5979 0.956055 50.1542 0.956055 49.2581V31.6268C0.956055 31.3598 1.06289 31.1038 1.25276 30.9159Z"
        fill="#C30101" />
    <path
        d="M12.1372 23.7469L13.0521 22.8121L15.4359 25.2477L18.2897 22.3318L15.9059 19.8962L16.8208 18.9614L22.6963 24.9647L21.7814 25.8994L19.1542 23.2152L16.3004 26.131L18.9276 28.8153L18.0127 29.7501L12.1372 23.7469ZM25.6689 22.099C25.238 22.5392 24.768 22.8251 24.2588 22.9566C23.7495 23.0767 23.2487 23.0567 22.7563 22.8966C22.2639 22.725 21.819 22.4363 21.4217 22.0304C21.0244 21.6245 20.7447 21.1728 20.5824 20.6754C20.4201 20.1665 20.4005 19.6548 20.5236 19.1403C20.6467 18.6143 20.9237 18.1312 21.3546 17.6909C21.7799 17.2564 22.2471 16.9791 22.7563 16.859C23.2655 16.7275 23.7691 16.7447 24.2671 16.9105C24.7596 17.0706 25.2044 17.3536 25.6017 17.7595C25.999 18.1655 26.2788 18.6228 26.4411 19.1317C26.5978 19.6348 26.6145 20.1494 26.4914 20.6754C26.3683 21.1899 26.0941 21.6645 25.6689 22.099ZM24.9218 21.3357C25.3024 20.9469 25.4702 20.5181 25.4255 20.0493C25.3807 19.5805 25.1401 19.1231 24.7036 18.6772C24.2671 18.2312 23.8195 17.9854 23.3606 17.9396C22.9018 17.8939 22.4821 18.0654 22.1016 18.4542C21.7211 18.843 21.5532 19.2718 21.598 19.7406C21.6428 20.2094 21.8834 20.6668 22.3198 21.1128C22.7563 21.5587 23.204 21.8046 23.6628 21.8503C24.1217 21.896 24.5413 21.7245 24.9218 21.3357ZM29.847 17.83C29.4833 18.2016 29.1112 18.3817 28.7307 18.3703C28.3502 18.3474 28.0144 18.1873 27.7235 17.89L25.2222 15.3344L24.5591 16.0119L23.938 15.2229L24.5255 14.6226L23.5435 13.6192L24.3325 12.6415L25.3984 13.7307L26.4141 12.693L27.1107 13.4048L26.0951 14.4425L28.1515 16.5436C28.4089 16.8066 28.602 16.9753 28.7307 17.0496C28.8594 17.1125 28.9853 17.1096 29.1084 17.041C29.2315 16.9724 29.4246 16.8037 29.6875 16.535L29.9142 16.3035L30.5605 17.101L29.847 17.83Z"
        fill="white" />
</svg>
