<svg width="33" height="16" viewBox="0 0 33 16" fill="none" xmlns="http://www.w3.org/2000/svg">
<path d="M1.90385 0.25H31.0962C32.0089 0.25 32.75 0.992152 32.75 1.90909C32.75 2.82603 32.0089 3.56818 31.0962 3.56818H1.90385C0.9911 3.56818 0.25 2.82603 0.25 1.90909C0.25 0.992151 0.9911 0.25 1.90385 0.25ZM5.71154 6.34091H27.2885C28.2012 6.34091 28.9423 7.08306 28.9423 8C28.9423 8.91694 28.2012 9.65909 27.2885 9.65909H5.71154C4.79879 9.65909 4.05769 8.91694 4.05769 8C4.05769 7.08306 4.79879 6.34091 5.71154 6.34091ZM1.90385 12.4318H31.0962C32.0089 12.4318 32.75 13.174 32.75 14.0909C32.75 15.0078 32.0089 15.75 31.0962 15.75H1.90385C0.9911 15.75 0.25 15.0078 0.25 14.0909C0.25 13.174 0.9911 12.4318 1.90385 12.4318Z" fill="#C30101" stroke="white" stroke-width="0.5"/>
</svg>
