<svg width="257" height="200" viewBox="0 0 257 200" fill="none" xmlns="http://www.w3.org/2000/svg">
<path d="M57.9297 43.3957C57.9297 28.1135 61.4932 27.681 62.9859 25.2301V0.576687L0 0.57669L2.12173e-06 24.7975C2.88927 26.5276 4.57467 33.9765 5.05621 37.4847L5.05622 98.181C5.05622 113.463 1.4928 113.896 1.01414e-05 116.347L1.2301e-05 141H62.9859V116.779C60.0967 115.049 58.4113 107.6 57.9297 104.092V43.3957Z" fill="#C30101"/>
<path d="M83.2108 0V53.7761C86.7004 54.5834 88.639 49.5951 89.1722 47L91.7894 16.8681C94.5519 3.17178 88.1544 0.288344 83.2108 0Z" fill="#C30101"/>
<path d="M83.2108 0.144172V53.6891C79.7212 54.493 77.7826 49.5261 77.2494 46.9422L74.6322 16.9398C71.8696 3.30232 78.2672 0.431276 83.2108 0.144172Z" fill="#C30101"/>
<path d="M251.643 43.3964C251.293 67.8971 250.977 104.509 251.79 107.951C251.816 108.063 251.842 108.172 251.867 108.279L251.88 108.335C252.727 111.939 252.951 112.891 257 117.188V140.567H208.948V117.188C213 113.493 214.303 109.491 214.448 107.951V67.1088L185.924 140.567H166.566L145.908 67.3282V108.129C146.052 109.667 147.352 113.665 151.397 117.356V140.567H103.436V117.356C104.784 115.914 107.712 112.05 108.636 108.129C109.561 104.207 109.022 57.1881 108.636 34.1687C108.684 32.5828 107.827 28.4307 104.013 24.5092V0.288344H166.566L180.146 55.6503V55.4189L185.924 0H226.48C225.547 0.21847 224.501 0.705218 223.664 1.69912C222.524 3.05312 221.883 5.21378 222.257 8.5419C222.292 8.84954 222.157 9.1695 221.896 9.37498C220.192 10.7149 218.098 13.0561 217.303 15.6471C216.901 16.9591 216.822 18.3697 217.339 19.7424C217.857 21.1175 218.94 22.3689 220.703 23.4183C221.009 23.6006 221.158 23.9034 221.129 24.1754L221.112 24.3393C220.885 26.4802 220.569 29.4565 221.478 31.9111C221.948 33.1825 222.751 34.3329 224.058 35.1586C225.356 35.9788 227.092 36.4413 229.369 36.4516C229.724 36.4532 230.023 36.6621 230.134 36.9504C230.89 38.9211 231.637 40.6642 233.081 41.7625C234.559 42.8873 236.617 43.2372 239.729 42.8707C239.959 42.8436 240.2 42.9157 240.394 43.0775C241.604 44.087 243.428 45.2312 245.526 45.5209C247.497 45.7929 249.64 45.2999 251.643 43.3964Z" fill="#C30101"/>
<path d="M52.1575 157.249H48.9602V179.882H52.1575V188.13H27.9856V179.882H31.0551V171.583H22.1025V179.882H25.1719V188.13H1V179.882H4.19735V157.249H1V149H25.1719V157.249H22.1025V164.893H31.0551V157.249H27.9856V149H52.1575V157.249Z" fill="#C30101"/>
<path d="M96.6546 179.882V188.13H79.1331V184.207C76.0637 187.292 72.2269 188.834 67.6227 188.834C64.0843 188.834 61.4198 187.963 59.6293 186.219C57.8815 184.475 57.0075 182.078 57.0075 179.027V168.414H54.1938V160.166H71.7153V176.663C71.7153 177.769 72.0137 178.591 72.6106 179.127C73.25 179.63 74.1879 179.882 75.4242 179.882C76.6605 179.882 77.5771 179.63 78.1739 179.127C78.8134 178.591 79.1331 177.769 79.1331 176.663V168.414H75.68V160.166H93.8409V179.882H96.6546Z" fill="#C30101"/>
<path d="M140.877 179.882V188.13H120.67V179.882H123.355V171.633C123.355 170.527 123.057 169.722 122.46 169.219C121.863 168.682 120.968 168.414 119.774 168.414C117.217 168.414 115.938 169.487 115.938 171.633V179.882H118.623V188.13H98.4161V179.882H101.23V168.414H98.4161V160.166H115.938V164.089C119.007 161.004 122.844 159.462 127.448 159.462C130.986 159.462 133.63 160.333 135.377 162.077C137.168 163.821 138.063 166.218 138.063 169.269V179.882H140.877Z" fill="#C30101"/>
<path d="M161.678 200C158.609 200 155.667 199.832 152.853 199.497C150.082 199.162 147.93 198.776 146.395 198.34V190.092C150.914 190.729 154.964 191.047 158.545 191.047C160.975 191.047 162.723 190.746 163.788 190.142C164.897 189.572 165.451 188.482 165.451 186.873V184.71C164.385 185.783 163 186.739 161.294 187.577C159.632 188.415 157.713 188.834 155.539 188.834C151.191 188.834 147.908 187.56 145.691 185.012C143.517 182.464 142.43 178.842 142.43 174.148C142.43 169.454 143.517 165.832 145.691 163.284C147.908 160.736 151.191 159.462 155.539 159.462C157.713 159.462 159.632 159.881 161.294 160.719C163 161.557 164.385 162.513 165.451 163.586V160.166H182.972V168.414H180.159V186.118C180.159 190.98 178.624 194.501 175.555 196.68C172.485 198.893 167.86 200 161.678 200ZM161.742 179.882C162.978 179.882 163.895 179.63 164.492 179.127C165.131 178.591 165.451 177.769 165.451 176.663V171.633C165.451 170.527 165.131 169.722 164.492 169.219C163.895 168.682 162.978 168.414 161.742 168.414C160.506 168.414 159.568 168.682 158.928 169.219C158.332 169.722 158.033 170.527 158.033 171.633V176.663C158.033 177.769 158.332 178.591 158.928 179.127C159.568 179.63 160.506 179.882 161.742 179.882Z" fill="#C30101"/>
<path d="M212.087 159.462C212.94 159.462 213.75 159.529 214.517 159.663C215.285 159.797 215.924 159.964 216.436 160.166V169.772C214.688 169.202 212.812 168.917 210.808 168.917C208.123 168.917 206.055 169.47 204.605 170.577C203.156 171.683 202.431 173.326 202.431 175.506V179.882H208.187V188.13H184.91V179.882H187.724V168.414H184.91V160.166H202.431V163.837C203.625 162.429 204.989 161.356 206.524 160.618C208.059 159.847 209.913 159.462 212.087 159.462Z" fill="#C30101"/>
<path d="M257 160.166V168.414H254.57L246.193 185.867C244.104 190.259 241.717 193.545 239.031 195.725C236.345 197.938 232.807 199.044 228.416 199.044C226.625 199.044 224.813 198.893 222.98 198.592C221.147 198.323 219.484 197.938 217.992 197.435V188.331H226.817V188.834C226.817 189.673 227.371 190.092 228.48 190.092C229.46 190.092 230.206 189.723 230.718 188.985L220.614 168.414H218.184V160.166H237.176V168.414H235.002L238.327 176.26L241.397 168.414H239.223V160.166H257Z" fill="#C30101"/>
</svg>
