<svg width="24" height="24" viewBox="0 0 24 24" fill="none" xmlns="http://www.w3.org/2000/svg">
<path d="M21.4814 2.52492C20.0206 0.972562 18.0044 0.0655481 15.8765 0.00341498C13.7487 -0.0587182 11.6833 0.729119 10.1348 2.19361C8.58634 3.6581 7.68159 5.67929 7.61962 7.81253C7.55764 9.94576 8.3435 12.0163 9.80433 13.5687L8.15191 15.2152L7.49095 14.5425L0 21.992L2.00293 24L9.49388 16.4902L8.8229 15.8276L10.4653 14.1711C12.0138 15.6356 14.0791 16.4234 16.207 16.3613C18.3349 16.2991 20.3511 15.3921 21.8119 13.8397C23.2727 12.2874 24.0586 10.2168 23.9966 8.0836C23.9346 5.95036 23.0299 3.92918 21.4814 2.46469V2.52492ZM2.06302 22.6446L1.41206 21.992L7.49095 15.9682L8.11186 16.5906L2.06302 22.6446ZM20.7904 13.1872C19.8094 14.1685 18.5603 14.8364 17.2008 15.1063C15.8414 15.3763 14.4326 15.2363 13.1525 14.7039C11.8724 14.1715 10.7785 13.2708 10.0088 12.1154C9.23918 10.96 8.82841 9.6018 8.82841 8.21246C8.82841 6.82312 9.23918 5.46495 10.0088 4.30955C10.7785 3.15415 11.8724 2.25336 13.1525 1.72101C14.4326 1.18865 15.8414 1.0486 17.2008 1.31856C18.5603 1.58852 19.8094 2.25638 20.7904 3.23775C21.4416 3.89186 21.9578 4.66831 22.3093 5.52265C22.6608 6.377 22.8408 7.29246 22.8389 8.21662C22.837 9.14079 22.6534 10.0555 22.2984 10.9084C21.9435 11.7613 21.4242 12.5357 20.7704 13.1872H20.7904Z" fill="#B90E17"/>
<path d="M11.5669 3.92045C10.4447 5.04952 9.81461 6.57842 9.81461 8.1723C9.81461 9.76617 10.4447 11.2951 11.5669 12.4241L12.2779 11.7113C11.3605 10.773 10.8466 9.51136 10.8466 8.1974C10.8466 6.88343 11.3605 5.62184 12.2779 4.68348L11.5669 3.92045Z" fill="#B90E17"/>
</svg>
