<svg width="32" height="16" viewBox="0 0 32 16" fill="none" xmlns="http://www.w3.org/2000/svg">
<path d="M17.2108 0H12.1238C11.8359 0 11.6025 0.227984 11.6025 0.509216V5.06064C11.6025 5.34187 11.8359 5.56986 12.1238 5.56986H17.2108C17.4987 5.56986 17.7321 5.34187 17.7321 5.06064V0.509216C17.7321 0.227984 17.4987 0 17.2108 0Z" fill="#C30101"/>
<g style="mix-blend-mode:multiply">
<path d="M17.2103 0H15.6465C15.7847 0 15.9173 0.0536494 16.0151 0.149146C16.1128 0.244642 16.1678 0.374164 16.1678 0.509216V5.06066C16.1678 5.19572 16.1128 5.32524 16.0151 5.42073C15.9173 5.51623 15.7847 5.56988 15.6465 5.56988H17.2103C17.3486 5.56988 17.4812 5.51623 17.5789 5.42073C17.6767 5.32524 17.7316 5.19572 17.7316 5.06066V0.509216C17.7316 0.374164 17.6767 0.244642 17.5789 0.149146C17.4812 0.0536494 17.3486 0 17.2103 0Z" fill="#FFC3C4"/>
</g>
<path d="M13.5798 2.30424C13.5798 2.06994 13.6356 2.06331 13.659 2.02573V1.64776L12.6729 1.64776L12.6729 2.0191C12.7181 2.04562 12.7445 2.15983 12.752 2.21361L12.752 3.14417C12.752 3.37847 12.6962 3.3851 12.6729 3.42268L12.6729 3.80065H13.659V3.42931C13.6137 3.40279 13.5873 3.28859 13.5798 3.2348V2.30424Z" fill="white"/>
<path d="M13.9756 1.63892V2.46338C14.0302 2.47576 14.0606 2.39928 14.0689 2.3595L14.1099 1.89753C14.1532 1.68754 14.053 1.64334 13.9756 1.63892Z" fill="white"/>
<path d="M13.9756 1.64113V2.46205C13.921 2.47437 13.8906 2.39822 13.8823 2.35861L13.8413 1.89863C13.798 1.68955 13.8982 1.64553 13.9756 1.64113Z" fill="white"/>
<path d="M16.6126 2.30425C16.6071 2.67988 16.6021 3.2412 16.6149 3.29397C16.6153 3.29568 16.6157 3.29735 16.6161 3.29899L16.6162 3.29969L16.6163 3.29985C16.6295 3.3551 16.633 3.3697 16.6964 3.43558V3.79402H15.9441V3.43558C16.0076 3.37893 16.028 3.31757 16.0302 3.29397V2.66779L15.5837 3.79402H15.2806L14.9572 2.67116V3.29669C14.9594 3.32027 14.9798 3.38157 15.0431 3.43815V3.79402H14.2922V3.43815C14.3133 3.41605 14.3592 3.35681 14.3737 3.29669C14.3881 3.23657 14.3797 2.51569 14.3737 2.16277C14.3744 2.13846 14.361 2.0748 14.3013 2.01468V1.64334H15.2806L15.4932 2.49212V2.48857L15.5837 1.63892H16.2186C16.204 1.64227 16.1876 1.64973 16.1745 1.66497C16.1567 1.68572 16.1466 1.71885 16.1525 1.76988C16.153 1.77459 16.1509 1.7795 16.1469 1.78265C16.1202 1.80319 16.0874 1.83909 16.0749 1.87881C16.0686 1.89892 16.0674 1.92055 16.0755 1.9416C16.0836 1.96268 16.1006 1.98186 16.1282 1.99795C16.133 2.00075 16.1353 2.00539 16.1348 2.00956L16.1346 2.01207C16.131 2.0449 16.1261 2.09053 16.1403 2.12816C16.1477 2.14765 16.1602 2.16529 16.1807 2.17795C16.201 2.19052 16.2282 2.19762 16.2638 2.19777C16.2694 2.1978 16.2741 2.201 16.2758 2.20542C16.2877 2.23563 16.2994 2.26236 16.322 2.2792C16.3451 2.29644 16.3773 2.30181 16.426 2.29619C16.4296 2.29577 16.4334 2.29688 16.4365 2.29936C16.4554 2.31484 16.484 2.33238 16.5168 2.33682C16.5477 2.34099 16.5812 2.33343 16.6126 2.30425Z" fill="white"/>
<path d="M17.1444 13.4992C17.1438 14.158 16.8754 14.7897 16.3983 15.2554C15.9211 15.7211 15.2742 15.9826 14.5998 15.9826C13.9253 15.9826 13.2784 15.7211 12.8012 15.2554C12.3241 14.7897 12.0557 14.158 12.0551 13.4992C12.0551 13.4992 12.0219 13.0418 12.2031 13.0529C12.3842 13.0639 17.1444 12.9976 17.1444 12.9976V13.4992Z" fill="black"/>
<path d="M16.3636 13.0082V13.4992C16.3636 14.0923 16.1465 14.6658 15.7516 15.1162C15.3566 15.5667 14.8099 15.8644 14.21 15.9557C14.5728 16.0105 14.9435 15.988 15.2966 15.8898C15.6497 15.7916 15.9769 15.6199 16.2558 15.3866C16.5346 15.1532 16.7585 14.8638 16.9121 14.538C17.0657 14.2122 17.1453 13.8578 17.1455 13.4992V12.9976C17.1455 12.9976 16.8321 13.0019 16.3636 13.0082Z" fill="#606060"/>
<path d="M15.59 13.6058C15.5219 14.0162 15.1422 14.4612 14.6015 14.4568C14.0541 14.4524 13.6279 13.9898 13.6211 13.4992C13.6212 13.3256 13.6697 13.1554 13.7612 13.0066C13.8528 12.8579 13.984 12.7362 14.1408 12.6547C14.6306 12.4033 15.2644 12.6346 15.4995 13.0528C15.5913 13.2224 15.6231 13.4168 15.59 13.6058Z" fill="white"/>
<path d="M25.9843 13.0878L10.2774 13.2774C9.40378 11.8116 10.6841 8.82324 12.8527 7.59901C13.992 6.95583 15.1552 6.92453 15.8094 6.96239H19.8048C18.9708 8.20272 19.0577 9.78558 19.9665 10.8021C20.6998 11.6221 21.8812 11.9772 22.937 11.7501C25.468 11.2057 25.31 8.34666 24.8913 6.41533C24.8598 6.26985 24.4125 4.70557 24.188 4.06372L25.8649 4.43619C26.4761 6.0972 27.8924 10.4402 27.8924 10.4402L25.9843 13.0878Z" fill="#E8002A"/>
<path d="M15.8094 6.96239C15.5688 6.9483 15.3275 6.9483 15.0869 6.96239H15.8094ZM19.1846 10.8021C19.8599 11.5573 20.9153 11.9178 21.9026 11.7927C21.1554 11.7034 20.4671 11.3512 19.9665 10.8021C19.0577 9.78558 18.9708 8.20272 19.8048 6.96239H19.0229C18.1889 8.20272 18.2758 9.78558 19.1846 10.8021ZM25.8649 4.4362L24.188 4.06372C24.2076 4.1197 24.2289 4.18305 24.2515 4.2515L25.083 4.4362C25.6942 6.0972 27.1105 10.4402 27.1105 10.4402H27.8924C27.8924 10.4402 26.4761 6.0972 25.8649 4.4362Z" fill="#A5001E"/>
<path d="M30.6103 11.7981C30.8732 12.0672 31.0709 12.3905 31.1888 12.7442C31.3067 13.0979 31.3419 13.4729 31.2918 13.8417C31.2416 14.2104 31.1074 14.5634 30.899 14.8747C30.6906 15.1861 30.4133 15.4477 30.0876 15.6405C29.7619 15.8332 29.3961 15.952 29.0171 15.9883C28.6381 16.0245 28.2557 15.9773 27.8979 15.8499C27.5401 15.7226 27.2161 15.5184 26.9499 15.2525C26.6836 14.9866 26.4818 14.6657 26.3594 14.3135" fill="black"/>
<path d="M30.6096 11.7981L30.0847 12.1087C30.3281 12.455 30.4776 12.8558 30.5194 13.2739C30.5611 13.6919 30.4937 14.1135 30.3234 14.4992C30.1532 14.8848 29.8856 15.2221 29.5457 15.4793C29.2058 15.7366 28.8047 15.9055 28.3799 15.9703C28.9051 16.0497 29.4426 15.9665 29.917 15.7323C30.3913 15.4981 30.7787 15.1246 31.0246 14.6644C31.2706 14.2041 31.3628 13.6802 31.2884 13.1661C31.214 12.6521 30.9766 12.1737 30.6096 11.7981V11.7981Z" fill="#606060"/>
<path d="M29.2407 12.6738C29.3921 12.7546 29.5189 12.873 29.6084 13.017C29.698 13.1609 29.7471 13.3254 29.7507 13.4939C29.7544 13.6623 29.7125 13.8287 29.6293 13.9763C29.5461 14.1238 29.4246 14.2474 29.2769 14.3344C29.1292 14.4214 28.9607 14.4688 28.7882 14.4719C28.6158 14.4749 28.4456 14.4335 28.2948 14.3518C28.144 14.2701 28.0179 14.1509 27.9293 14.0064C27.8407 13.8619 27.7926 13.6971 27.79 13.5286C27.8171 13.3738 27.878 13.2265 27.9686 13.0968C28.0592 12.967 28.1773 12.8578 28.315 12.7767C28.4527 12.6956 28.6066 12.6444 28.7664 12.6266C28.9261 12.6089 29.0879 12.625 29.2407 12.6738H29.2407Z" fill="white"/>
<path d="M10.2773 13.2774C10.8758 10.5702 13.4627 9.04292 15.5666 9.56948C17.091 9.951 18.2939 11.3938 18.5745 13.173L10.2773 13.2774Z" fill="#CD0328"/>
<path d="M15.5666 9.56907C15.0263 9.43838 14.4623 9.43167 13.9189 9.54944C13.9469 9.55569 13.9749 9.5621 14.0027 9.56907C15.5271 9.95059 16.7301 11.3934 17.0107 13.1726L10.282 13.2572C10.2805 13.2639 10.2788 13.2704 10.2773 13.277L18.5745 13.1726C18.2939 11.3934 17.091 9.95059 15.5666 9.56907Z" fill="#A5001E"/>
<path d="M26.7817 10.4767L26.9367 10.3866C27.6494 9.97235 28.5012 9.85161 29.305 10.0509C30.1088 10.2503 30.7985 10.7533 31.2226 11.4495L31.2226 11.4495L25.6936 14.6633L25.6936 14.6633C25.2696 13.9672 25.146 13.135 25.35 12.3499C25.5541 11.5647 26.0691 10.8909 26.7817 10.4767Z" fill="#CD0328"/>
<path d="M31.2229 11.4495C30.8769 10.8818 30.3517 10.4389 29.7262 10.1873C29.1007 9.93576 28.4085 9.8891 27.7536 10.0543C28.2489 10.1789 28.7053 10.4202 29.0829 10.7572C29.1634 10.8301 29.2253 10.9203 29.2637 11.0207C29.3021 11.1211 29.3161 11.2288 29.3043 11.3354C29.2926 11.442 29.2556 11.5444 29.1963 11.6345C29.1369 11.7246 29.0568 11.7999 28.9624 11.8545L25.374 13.9403C25.4483 14.1938 25.5558 14.4369 25.6939 14.6634V14.6634L31.2229 11.4495L31.2229 11.4495Z" fill="#A5001E"/>
<path d="M25.0438 2.19067H26.4703C26.5117 2.19067 26.5515 2.20677 26.5808 2.23542C26.6102 2.26407 26.6266 2.30292 26.6266 2.34344V4.28315C26.6266 4.32366 26.6102 4.36252 26.5808 4.39117C26.5515 4.41982 26.5117 4.43591 26.4703 4.43591H25.0438C24.739 4.43591 24.4467 4.31763 24.2311 4.1071C24.0156 3.89657 23.8945 3.61103 23.8945 3.31329C23.8945 3.01556 24.0156 2.73001 24.2311 2.51948C24.4467 2.30895 24.739 2.19067 25.0438 2.19067Z" fill="#A5001E"/>
<path d="M26.4694 2.19067H25.6875C25.729 2.19067 25.7688 2.20677 25.7981 2.23542C25.8274 2.26407 25.8439 2.30292 25.8439 2.34344V4.28314C25.8439 4.32366 25.8274 4.36251 25.7981 4.39116C25.7688 4.41981 25.729 4.4359 25.6875 4.43591H26.4694C26.5109 4.4359 26.5507 4.41981 26.58 4.39116C26.6093 4.36251 26.6258 4.32366 26.6258 4.28314V2.34344C26.6258 2.30292 26.6093 2.26407 26.58 2.23542C26.5507 2.20677 26.5109 2.19067 26.4694 2.19067Z" fill="#E8002A"/>
<path d="M19.704 5.56982H13.787C13.3933 5.56982 13.0742 5.88154 13.0742 6.26605C13.0742 6.65056 13.3933 6.96228 13.787 6.96228H19.704C20.0977 6.96228 20.4168 6.65056 20.4168 6.26605C20.4168 5.88154 20.0977 5.56982 19.704 5.56982Z" fill="#A5001E"/>
<path d="M19.7045 5.56982H18.1406C18.2342 5.56982 18.3269 5.58783 18.4134 5.62282C18.4999 5.65781 18.5784 5.70909 18.6446 5.77375C18.7108 5.8384 18.7633 5.91515 18.7991 5.99962C18.8349 6.08409 18.8534 6.17463 18.8534 6.26606C18.8534 6.35749 18.8349 6.44802 18.7991 6.5325C18.7633 6.61697 18.7108 6.69372 18.6446 6.75837C18.5784 6.82302 18.4999 6.87431 18.4134 6.9093C18.3269 6.94428 18.2342 6.96229 18.1406 6.96229H19.7045C19.7981 6.96229 19.8908 6.94428 19.9772 6.9093C20.0637 6.87431 20.1423 6.82302 20.2085 6.75837C20.2746 6.69372 20.3271 6.61697 20.363 6.5325C20.3988 6.44802 20.4172 6.35749 20.4172 6.26606C20.4172 6.17463 20.3988 6.08409 20.363 5.99962C20.3271 5.91515 20.2746 5.8384 20.2085 5.77375C20.1423 5.70909 20.0637 5.65781 19.9772 5.62282C19.8908 5.58783 19.7981 5.56982 19.7045 5.56982Z" fill="#5E0011"/>
<rect x="1" y="5.86108" width="9" height="0.976848" rx="0.488424" fill="#A5001E"/>
<rect y="7.8147" width="6" height="0.976848" rx="0.488424" fill="#A5001E"/>
<rect x="2" y="9.76855" width="8" height="0.976848" rx="0.488424" fill="#A5001E"/>
</svg>
