<svg width="173" height="160" viewBox="0 0 173 160" fill="none" xmlns="http://www.w3.org/2000/svg">
<path d="M88.2798 67.741C81.1605 67.741 75.465 73.079 75.465 79.7516C75.465 82.4206 76.1769 85.0897 78.3128 87.0914C45.5638 91.7622 21.358 117.118 21.358 148.479C21.358 150.481 21.358 151.815 22.07 153.817H2.84774C1.42387 153.817 0 155.152 0 156.486C0 157.821 1.42387 159.155 2.84774 159.155H24.2058C72.6173 159.155 142.387 159.822 170.152 159.155C171.576 159.155 173 157.821 173 156.486C173 155.152 171.576 153.817 170.152 153.817H155.914C155.914 151.815 156.625 149.814 156.625 147.812C156.625 116.451 131.708 91.095 98.9588 85.7569C100.383 83.7551 101.807 81.0861 101.807 78.4171C101.095 73.7463 95.3992 67.741 88.2798 67.741ZM116.045 110.445H116.757C124.588 111.78 131.708 117.118 133.132 123.791C133.844 125.125 132.42 127.127 130.996 127.127C129.572 127.794 127.436 126.46 127.436 125.125C126.012 119.787 121.029 116.451 115.333 115.116C113.198 115.783 113.198 111.113 116.045 110.445Z" fill="#DA2327"/>
<path d="M87.3536 59.954C89.9446 59.954 92.0451 57.9207 92.0451 55.4125C92.0451 52.9044 89.9446 50.8711 87.3536 50.8711C84.7626 50.8711 82.6621 52.9044 82.6621 55.4125C82.6621 57.9207 84.7626 59.954 87.3536 59.954Z" fill="#730101"/>
<path d="M81.6788 48.3928C81.9776 49.3193 82.5696 50.1314 83.3711 50.7145C84.1727 51.2975 85.1432 51.622 86.1456 51.6421C87.3998 51.6421 88.8109 51.1797 90.1195 49.649C93.6093 45.57 87.186 38.381 95.8383 29.6887C104.491 20.9964 105.391 5.58807 89.8513 4.56408C77.9841 3.78712 73.129 10.9318 71.7637 15.4036V19.9365L80.0997 23.1035C80.0997 23.1035 83.2884 13.7377 88.5383 14.9306C93.7881 16.1235 88.8436 24.5223 85.5306 27.7146C78.2305 34.7516 80.3418 44.3708 81.6788 48.3928Z" fill="#730101"/>
<path d="M81.6781 42.6518C81.9789 43.5771 82.5715 44.388 83.3726 44.9707C84.1737 45.5535 85.1431 45.8788 86.145 45.9011C87.3991 45.9011 88.8102 45.35 90.1189 43.8214C93.6086 39.7403 86.7404 35.6845 95.3949 26.9922C104.049 18.2999 105.397 1.06318 89.8571 0.0455234C74.317 -0.972129 71.7695 15.4095 71.7695 15.4095L80.1056 18.5765C80.1056 18.5765 83.2878 9.22128 88.5376 10.4099C93.7874 11.5986 88.8429 19.9995 85.5299 23.1939C78.2299 30.2246 80.3411 38.6297 81.6781 42.6518Z" fill="#C30101"/>
<path d="M87.3536 56.9833C89.9446 56.9833 92.0451 54.95 92.0451 52.4418C92.0451 49.9337 89.9446 47.9004 87.3536 47.9004C84.7626 47.9004 82.6621 49.9337 82.6621 52.4418C82.6621 54.95 84.7626 56.9833 87.3536 56.9833Z" fill="#C30101"/>
<path d="M68.6445 54.5644C69.1107 53.5989 68.68 52.4503 67.6826 51.9991C66.6852 51.5478 65.4987 51.9647 65.0325 52.9302C64.5664 53.8958 64.997 55.0443 65.9945 55.4955C66.9919 55.9468 68.1783 55.5299 68.6445 54.5644Z" fill="#730101"/>
<path d="M63.5245 51.7432C63.7833 52.071 64.1417 52.312 64.5494 52.4325C64.957 52.5529 65.3934 52.5467 65.7972 52.4146C66.2988 52.2415 66.7917 51.8551 67.0862 51.0592C67.867 48.9479 64.2246 46.9696 66.3817 42.2803C68.5388 37.5911 66.5867 31.3015 60.2267 33.0835C55.3673 34.4389 54.497 37.9754 54.6214 39.9558L55.2997 41.7631L59.1035 41.856C59.1035 41.856 58.9726 37.6692 61.2496 37.4074C63.5267 37.1456 62.8091 41.1972 61.9628 42.9391C60.1002 46.7774 62.386 50.3244 63.5245 51.7432Z" fill="#730101"/>
<path d="M62.6643 49.4481C62.9222 49.7765 63.2802 50.018 63.6877 50.1385C64.0951 50.259 64.5315 50.2524 64.9348 50.1195C65.4387 49.9464 65.9185 49.5263 66.2108 48.7303C66.9938 46.619 63.6436 45.9539 65.7985 41.2647C67.9534 36.5755 65.9098 29.5005 59.5476 31.2761C53.1854 33.0517 54.6315 39.9557 54.6315 39.9557L58.4352 40.0465C58.4352 40.0465 58.3066 35.8619 60.5814 35.6001C62.8563 35.3383 62.1409 39.3899 61.2946 41.1296C59.4298 44.9679 61.5236 48.0293 62.6643 49.4481Z" fill="#C30101"/>
<path d="M67.2738 54.2939C68.2627 53.8254 68.6719 52.6696 68.1879 51.7123C67.7039 50.7551 66.5099 50.3589 65.521 50.8274C64.5321 51.296 64.1228 52.4518 64.6069 53.409C65.0909 54.3663 66.2849 54.7625 67.2738 54.2939Z" fill="#C30101"/>
<path d="M58.0554 72.2586C58.1385 72.6314 58.1057 73.0198 57.9609 73.3745C57.8162 73.7293 57.5661 74.0346 57.2423 74.2518C56.9185 74.4691 56.5354 74.5886 56.1414 74.5952C55.7475 74.6018 55.3603 74.4953 55.0289 74.289C54.6974 74.0828 54.4365 73.7861 54.2792 73.4364C54.1218 73.0868 54.075 72.6998 54.1447 72.3244C54.2144 71.949 54.3975 71.602 54.6708 71.3273C54.9441 71.0525 55.2953 70.8623 55.6802 70.7807C55.9365 70.7261 56.2013 70.721 56.4596 70.7658C56.7179 70.8106 56.9645 70.9044 57.1852 71.0417C57.4059 71.179 57.5964 71.3572 57.7458 71.5661C57.8951 71.7749 58.0003 72.0103 58.0554 72.2586Z" fill="#730101"/>
<path d="M53.0913 70.2592C53.3027 70.6176 53.6252 70.9026 54.0131 71.0738C54.4009 71.2451 54.8346 71.294 55.2528 71.2135C55.7741 71.1059 56.3171 70.7913 56.7141 70.0354C57.7763 68.0339 54.4327 65.6165 57.2048 61.2418C59.977 56.8672 58.8973 50.3918 52.3498 51.344C47.3486 52.0703 46.0072 55.4653 45.8633 57.4436L46.2995 59.3226L50.0509 59.9011C50.0509 59.9011 50.4871 55.7355 52.7816 55.7651C55.0761 55.7946 53.8133 59.7196 52.7402 61.3368C50.3694 64.9028 52.1557 68.7095 53.0913 70.2592Z" fill="#730101"/>
<path d="M52.5518 67.8759C52.7635 68.2341 53.086 68.5189 53.4738 68.6901C53.8616 68.8613 54.2951 68.9104 54.7133 68.8303C55.2346 68.7226 55.7667 68.3658 56.1659 67.6163C57.228 65.6147 53.9957 64.538 56.7678 60.1633C59.54 55.7887 58.4713 48.5131 51.9237 49.4653C45.3761 50.4175 45.8647 57.444 45.8647 57.444L49.6161 58.0182C49.6161 58.0182 50.0523 53.8526 52.3468 53.8822C54.6413 53.9117 53.3785 57.8367 52.3054 59.4539C49.9455 63.0242 51.614 66.3262 52.5518 67.8759Z" fill="#C30101"/>
<path d="M55.9762 73.3662C57.0741 73.2869 57.8977 72.361 57.8158 71.2981C57.7338 70.2353 56.7773 69.4381 55.6794 69.5175C54.5814 69.5968 53.7579 70.5227 53.8398 71.5855C53.9218 72.6483 54.8783 73.4456 55.9762 73.3662Z" fill="#C30101"/>
<path d="M116.413 57.7558C116.325 58.1278 116.126 58.4662 115.839 58.7283C115.552 58.9903 115.192 59.1642 114.803 59.228C114.415 59.2919 114.015 59.2427 113.656 59.0868C113.296 58.9309 112.992 58.6752 112.782 58.3521C112.572 58.029 112.466 57.653 112.477 57.2716C112.488 56.8901 112.616 56.5204 112.844 56.2091C113.072 55.8979 113.39 55.6591 113.759 55.5229C114.127 55.3867 114.528 55.3592 114.913 55.4439C115.428 55.5582 115.876 55.8658 116.157 56.2993C116.439 56.7328 116.531 57.2567 116.413 57.7558Z" fill="#730101"/>
<path d="M112.807 53.8964C112.84 54.307 113.005 54.6974 113.278 55.0125C113.552 55.3277 113.921 55.5517 114.334 55.653C114.851 55.7712 115.483 55.7058 116.175 55.1927C118.018 53.8225 116.063 50.2544 120.5 47.4463C124.936 44.6383 126.825 38.336 120.48 36.4886C115.638 35.0762 112.925 37.5907 111.922 39.3199L111.485 41.1947L114.63 43.268C114.63 43.268 116.866 39.6788 118.925 40.6585C120.984 41.6381 118.111 44.6594 116.425 45.6792C112.711 47.9256 112.65 52.106 112.807 53.8964Z" fill="#730101"/>
<path d="M113.368 51.5174C113.4 51.9282 113.565 52.3187 113.838 52.6339C114.112 52.9491 114.482 53.173 114.894 53.2741C115.413 53.3944 116.055 53.2909 116.746 52.7779C118.589 51.4077 116.142 49.0958 120.58 46.2877C125.019 43.4797 127.261 36.4659 120.936 34.6122C114.611 32.7584 111.935 39.3204 111.935 39.3204L115.08 41.3937C115.08 41.3937 117.315 37.8045 119.374 38.782C121.433 39.7596 118.561 42.7935 116.877 43.8048C113.152 46.0513 113.204 49.7292 113.368 51.5174Z" fill="#C30101"/>
<path d="M116.607 56.8069C117.014 55.8167 116.514 54.6945 115.491 54.3004C114.468 53.9063 113.309 54.3896 112.902 55.3799C112.495 56.3701 112.994 57.4923 114.017 57.8864C115.04 58.2804 116.199 57.7971 116.607 56.8069Z" fill="#C30101"/>
<path d="M126.535 75.0202C126.366 75.2517 126.129 75.4293 125.856 75.5309C125.583 75.6324 125.284 75.6532 124.999 75.5906C124.713 75.528 124.453 75.3849 124.252 75.1793C124.05 74.9737 123.916 74.7149 123.866 74.4355C123.817 74.1562 123.854 73.8689 123.972 73.6099C124.091 73.3509 124.287 73.1318 124.535 72.9804C124.782 72.829 125.071 72.7521 125.363 72.7593C125.656 72.7664 125.94 72.8575 126.179 73.0208C126.338 73.1294 126.474 73.2673 126.578 73.4266C126.682 73.5859 126.752 73.7635 126.785 73.9492C126.818 74.1349 126.813 74.3251 126.77 74.5089C126.727 74.6926 126.647 74.8664 126.535 75.0202Z" fill="#730101"/>
<path d="M125.181 71.3804C125.084 71.6723 125.084 71.9863 125.182 72.278C125.279 72.5697 125.469 72.8244 125.724 73.0061C125.926 73.1409 126.158 73.2281 126.401 73.2607C126.644 73.2934 126.892 73.2705 127.124 73.194C128.793 72.757 128.489 69.7674 132.359 69.0495C136.228 68.3317 139.366 64.5144 135.545 61.5079C132.629 59.2129 130.029 60.1989 128.834 61.1131L127.981 62.2807L129.539 64.5693C129.539 64.5693 132.123 62.7156 133.246 63.9486C134.37 65.1816 131.519 66.4822 130.062 66.7186C126.86 67.2465 125.593 70.1031 125.181 71.3804Z" fill="#730101"/>
<path d="M126.263 69.8964C126.166 70.1886 126.166 70.5029 126.264 70.795C126.361 71.087 126.551 71.3421 126.806 71.5242C127.127 71.748 127.598 71.8536 128.222 71.6889C129.89 71.2518 128.876 68.9927 132.756 68.277C136.636 67.5613 140.222 63.3471 136.401 60.3406C132.579 57.3341 128.837 61.1133 128.837 61.1133L130.394 63.3999C130.394 63.3999 132.979 61.5461 134.102 62.7813C135.225 64.0164 132.374 65.3148 130.917 65.5513C127.713 66.0791 126.675 68.6211 126.263 69.8964Z" fill="#C30101"/>
<path d="M127.105 74.2322C127.569 73.5784 127.397 72.6848 126.722 72.2361C126.046 71.7875 125.123 71.9537 124.66 72.6075C124.196 73.2613 124.368 74.155 125.043 74.6036C125.719 75.0523 126.642 74.886 127.105 74.2322Z" fill="#C30101"/>
</svg>
