<svg width="16" height="16" viewBox="0 0 16 16" fill="none" xmlns="http://www.w3.org/2000/svg">
    <path d="M3.40373 5.88545H0V15.9957H3.40373V5.88545Z" fill="#C30101" />
    <path
        d="M14.9576 6.65246H9.8032C9.77612 6.65266 9.74948 6.64532 9.72614 6.63124C9.70279 6.61716 9.6836 6.59685 9.67061 6.57248C9.65761 6.5481 9.6513 6.52057 9.65235 6.49282C9.65339 6.46506 9.66175 6.43811 9.67653 6.41483C10.3225 5.45719 10.7428 4.35873 10.9042 3.20606C10.995 2.08992 10.6704 0 9.06799 0C7.43553 0 7.60442 1.61738 7.36216 2.56193C7.13574 3.44531 6.86868 4.136 5.48587 5.39125C5.01984 5.8437 4.59839 6.3421 4.22761 6.87926V14.7388C4.22761 14.7388 6.48286 16 7.22019 16H14.4135C14.69 15.9999 14.9551 15.8871 15.1506 15.6865C15.346 15.486 15.4558 15.214 15.4558 14.9304C15.4558 14.3399 15.2611 13.8608 14.6853 13.8608C14.8242 13.864 14.9623 13.8387 15.0915 13.7864C15.2208 13.7341 15.3385 13.6559 15.4378 13.5563C15.5372 13.4567 15.6161 13.3377 15.67 13.2064C15.7239 13.075 15.7516 12.934 15.7516 12.7915C15.7516 12.649 15.7239 12.508 15.67 12.3766C15.6161 12.2453 15.5372 12.1263 15.4378 12.0267C15.3385 11.9271 15.2208 11.8489 15.0915 11.7966C14.9623 11.7443 14.8242 11.719 14.6853 11.7222C14.9915 11.7286 15.2904 11.6254 15.5304 11.4301C15.7704 11.2349 15.9364 10.9599 16 10.6526V10.2575C16 9.97387 15.8902 9.7019 15.6947 9.50133C15.4993 9.30076 15.2341 9.188 14.9576 9.18786C15.2341 9.18772 15.4993 9.07497 15.6947 8.87439C15.8902 8.67382 16 8.40185 16 8.11827V7.72313C16.0001 7.58262 15.9733 7.44347 15.921 7.31361C15.8686 7.18375 15.7919 7.06574 15.6951 6.96631C15.5983 6.86688 15.4833 6.78799 15.3568 6.73413C15.2303 6.68028 15.0946 6.65253 14.9576 6.65246Z"
        fill="#C30101" />
</svg>
