<svg width="16" height="16" viewBox="0 0 16 16" fill="none" xmlns="http://www.w3.org/2000/svg">
<path d="M12.129 5.07453H11.6129V1.50206L13.1458 0L13.5071 0.355217L12.129 1.71519V5.07453Z" fill="#DA2327"/>
<path d="M8.25806 6.34316L8.30968 6.85062L8.47484 8.37298V8.46939L8.67097 10.1491L8.80516 11.3974L8.85677 11.9049L8.91355 12.4123L9.03226 13.7012L9.13548 14.7161L9.16645 14.9851L9.26968 15.9746V16H14.431L15.4065 6.86584L15.4632 6.35839L8.25806 6.34316ZM10.8129 14.9699H10.2968C10.3124 14.8861 10.321 14.8013 10.3226 14.7161H10.8387C10.8372 14.8013 10.8285 14.8861 10.8129 14.9699ZM10.8387 11.4177H10.4155C10.353 11.2556 10.3215 11.0836 10.3226 10.9102C10.3214 10.5687 10.4399 10.2372 10.6581 9.97146C10.7763 10.2708 10.8376 10.5891 10.8387 10.9102V11.4177Z" fill="#DA2327"/>
<path d="M8.25806 6.34316L8.30968 6.85062H14.5032C14.5575 6.85109 14.6111 6.86263 14.6606 6.88451C14.7101 6.90638 14.7544 6.93812 14.7908 6.9777C14.8272 7.01729 14.8548 7.06386 14.8719 7.11449C14.8891 7.16511 14.8953 7.21868 14.8903 7.2718L14.0439 14.9699L13.9355 15.9848H14.4516L14.56 14.9699L15.4839 6.34316H8.25806Z" fill="#DA2327"/>
<path d="M16 5.32826H7.74194V6.34316H16V5.32826Z" fill="#DA2327"/>
<path d="M16 5.32826H15.4839V6.34316H16V5.32826Z" fill="#DA2327"/>
<path d="M14.4516 4.31335H9.29032V5.32826H14.4516V4.31335Z" fill="#DA2327"/>
<path d="M14.4516 4.31335H13.9355V5.32826H14.4516V4.31335Z" fill="#DA2327"/>
<path d="M14.56 14.9699L14.4516 15.9848H9.29032L9.28516 15.9594L9.18194 14.9699H14.56Z" fill="#DA2327"/>
<path d="M14.0439 14.9699L13.9355 15.9848H14.4516L14.56 14.9699H14.0439Z" fill="#DA2327"/>
<path d="M13.4194 10.9102C13.4194 11.314 13.2562 11.7012 12.9658 11.9867C12.6755 12.2722 12.2816 12.4326 11.871 12.4326H11.6129C11.4714 12.413 11.3339 12.3719 11.2052 12.3108L11.0245 12.2093V11.9251H10.72C10.5832 11.7799 10.4809 11.6066 10.4206 11.4177H10.8439V10.9102C10.8427 10.5891 10.7815 10.2708 10.6632 9.97146C10.8953 9.67257 11.2353 9.47274 11.6129 9.41326H11.871C12.2772 9.4132 12.6672 9.5701 12.9568 9.85014C13.2465 10.1302 13.4126 10.5109 13.4194 10.9102Z" fill="#DA2327"/>
<path d="M11.871 9.38788C11.7843 9.38852 11.6979 9.39702 11.6129 9.41326C11.9687 9.47793 12.2902 9.66308 12.5216 9.93654C12.7531 10.21 12.8798 10.5545 12.8798 10.9102C12.8798 11.266 12.7531 11.6105 12.5216 11.884C12.2902 12.1574 11.9687 12.3426 11.6129 12.4072C11.6979 12.4235 11.7843 12.432 11.871 12.4326C12.2816 12.4326 12.6755 12.2722 12.9658 11.9867C13.2562 11.7012 13.4194 11.314 13.4194 10.9102C13.4194 10.5065 13.2562 10.1193 12.9658 9.83377C12.6755 9.54827 12.2816 9.38788 11.871 9.38788Z" fill="#DA2327"/>
<path d="M10.8387 14.7161C10.838 14.8064 10.8294 14.8963 10.8129 14.9851H10.2968C10.3133 14.8963 10.3219 14.8064 10.3226 14.7161H10.8387Z" fill="#DA2327"/>
<path d="M10.8129 14.9699C10.7587 15.2121 10.6351 15.4339 10.4568 15.6093C10.2158 15.8467 9.88956 15.9816 9.54839 15.9848H2.32258C1.98161 15.9808 1.65575 15.8459 1.41463 15.6088C1.17351 15.3718 1.03628 15.0514 1.03226 14.7161H10.3226C10.3219 14.8064 10.3133 14.8963 10.2968 14.9851L10.8129 14.9699Z" fill="#DA2327"/>
<path d="M11.0245 12.3971V14.2087H1.03226V12.4326H10.8387C10.9025 12.434 10.9659 12.4219 11.0245 12.3971Z" fill="#DA2327"/>
<path d="M10.849 13.7012H1.02194C0.742586 13.7012 0.516129 13.9239 0.516129 14.1985V14.2036C0.516129 14.4783 0.742586 14.7009 1.02194 14.7009H10.849C11.1284 14.7009 11.3548 14.4783 11.3548 14.2036V14.1985C11.3548 13.9239 11.1284 13.7012 10.849 13.7012Z" fill="#DA2327"/>
<path d="M11.0245 11.9251V12.1789C10.9557 12.1326 10.8902 12.0817 10.8284 12.0266C10.7871 11.9966 10.7505 11.9607 10.72 11.9201L11.0245 11.9251Z" fill="#DA2327"/>
<path d="M11.0245 12.1789V12.392C10.9659 12.4168 10.9025 12.429 10.8387 12.4275H1.03226V11.9201H10.72C10.7505 11.9607 10.7871 11.9966 10.8284 12.0266C10.8902 12.0817 10.9557 12.1326 11.0245 12.1789Z" fill="#DA2327"/>
<path d="M11.2052 12.2854C11.1523 12.3331 11.0911 12.3709 11.0245 12.3971V12.1789L11.2052 12.2854Z" fill="#DA2327"/>
<path d="M11.3548 11.9251C11.3552 11.9919 11.3422 12.0581 11.3165 12.12C11.2908 12.1818 11.253 12.238 11.2052 12.2854L11.0245 12.184V11.9251H1.03226V12.4326C0.895372 12.4326 0.764093 12.3791 0.6673 12.284C0.570507 12.1888 0.516129 12.0597 0.516129 11.9251C0.516129 11.7906 0.570507 11.6615 0.6673 11.5663C0.764093 11.4712 0.895372 11.4177 1.03226 11.4177H10.8387C10.9756 11.4177 11.1069 11.4712 11.2037 11.5663C11.3005 11.6615 11.3548 11.7906 11.3548 11.9251ZM10.8387 10.9102V11.4177H10.4155C10.353 11.2556 10.3215 11.0836 10.3226 10.9102C10.3214 10.5687 10.4399 10.2372 10.6581 9.97146C10.7763 10.2708 10.8376 10.5891 10.8387 10.9102Z" fill="#DA2327"/>
<path d="M10.3226 10.9102C10.3215 11.0836 10.353 11.2556 10.4155 11.4177H1.03226V10.9102C1.03226 10.2373 1.30415 9.59196 1.78811 9.11613C2.27208 8.6403 2.92847 8.37298 3.6129 8.37298H8.47484C8.95294 8.41204 9.41051 8.58136 9.79616 8.86192C10.1818 9.14249 10.4803 9.5232 10.6581 9.96131C10.4376 10.2298 10.319 10.5652 10.3226 10.9102Z" fill="#DA2327"/>
<path d="M3.09677 8.37298H7.74194C8.08083 8.37298 8.41641 8.43861 8.72951 8.56612C9.0426 8.69363 9.32709 8.88052 9.56673 9.11613C9.80636 9.35173 9.99645 9.63144 10.1261 9.93927C10.2558 10.2471 10.3226 10.577 10.3226 10.9102V11.4177H0.516129V10.9102C0.516129 10.2373 0.788018 9.59196 1.27198 9.11613C1.75595 8.6403 2.41234 8.37298 3.09677 8.37298Z" fill="#DA2327"/>
<path d="M7.74194 8.37298H7.22581C7.91024 8.37298 8.56663 8.6403 9.0506 9.11613C9.53456 9.59196 9.80645 10.2373 9.80645 10.9102V11.4177H10.3226V10.9102C10.3226 10.577 10.2558 10.2471 10.1261 9.93927C9.99645 9.63144 9.80636 9.35173 9.56673 9.11613C9.32709 8.88052 9.0426 8.69363 8.72951 8.56612C8.41641 8.43861 8.08083 8.37298 7.74194 8.37298Z" fill="#DA2327"/>
<path d="M10.5084 11.9251H0.516129V14.2087H10.5084V11.9251Z" fill="#DA2327"/>
<path d="M10.5084 11.9251H9.99226V14.2087H10.5084V11.9251Z" fill="#DA2327"/>
<path d="M10.3226 14.7161C10.3219 14.8064 10.3133 14.8963 10.2968 14.9851C10.277 15.067 10.2494 15.1469 10.2142 15.2236C10.1519 15.3742 10.0588 15.5107 9.94065 15.6245C9.76161 15.8016 9.53374 15.9233 9.28516 15.9746C9.19662 15.9907 9.10682 15.9992 9.01677 16H1.80645C1.55333 15.9976 1.30637 15.923 1.09562 15.7851C0.884859 15.6473 0.719394 15.4522 0.619355 15.2236C0.551081 15.0628 0.515992 14.8903 0.516129 14.7161H10.3226Z" fill="#DA2327"/>
<path d="M9.80645 14.7161C9.80579 14.8064 9.79715 14.8963 9.78065 14.9851C9.72644 15.2273 9.60286 15.4491 9.42452 15.6245C9.24548 15.8016 9.01761 15.9233 8.76903 15.9746C8.68049 15.9907 8.59069 15.9992 8.50064 16H9.01677C9.10682 15.9992 9.19662 15.9907 9.28516 15.9746C9.53374 15.9233 9.76161 15.8016 9.94065 15.6245C10.119 15.4491 10.2426 15.2273 10.2968 14.9851C10.3133 14.8963 10.3219 14.8064 10.3226 14.7161H9.80645Z" fill="#DA2327"/>
<path d="M10.3329 13.7012H9.81677C9.95366 13.7012 10.0849 13.7547 10.1817 13.8499C10.2785 13.945 10.3329 14.0741 10.3329 14.2087C10.3329 14.3433 10.2785 14.4723 10.1817 14.5675C10.0849 14.6627 9.95366 14.7161 9.81677 14.7161H10.3329C10.4698 14.7161 10.6011 14.6627 10.6979 14.5675C10.7947 14.4723 10.849 14.3433 10.849 14.2087C10.849 14.0741 10.7947 13.945 10.6979 13.8499C10.6011 13.7547 10.4698 13.7012 10.3329 13.7012Z" fill="#DA2327"/>
<path d="M10.5084 11.9607V12.9045C10.4498 12.9294 10.3864 12.9415 10.3226 12.9401H0.516129V11.9251H10.3226C10.3864 11.9237 10.4498 11.9358 10.5084 11.9607Z" fill="#DA2327"/>
<path d="M10.3226 11.4177H0.516129C0.231079 11.4177 0 11.6449 0 11.9251C0 12.2054 0.231079 12.4326 0.516129 12.4326H10.3226C10.6076 12.4326 10.8387 12.2054 10.8387 11.9251C10.8387 11.6449 10.6076 11.4177 10.3226 11.4177Z" fill="#DA2327"/>
<path d="M10.3226 11.4177H9.80645C9.94334 11.4177 10.0746 11.4712 10.1714 11.5663C10.2682 11.6615 10.3226 11.7906 10.3226 11.9251C10.3226 12.0597 10.2682 12.1888 10.1714 12.284C10.0746 12.3791 9.94334 12.4326 9.80645 12.4326H10.3226C10.4595 12.4326 10.5907 12.3791 10.6875 12.284C10.7843 12.1888 10.8387 12.0597 10.8387 11.9251C10.8387 11.7906 10.7843 11.6615 10.6875 11.5663C10.5907 11.4712 10.4595 11.4177 10.3226 11.4177Z" fill="#DA2327"/>
<path d="M2.06452 10.1491C2.20704 10.1491 2.32258 10.0355 2.32258 9.89534C2.32258 9.75521 2.20704 9.64161 2.06452 9.64161C1.92199 9.64161 1.80645 9.75521 1.80645 9.89534C1.80645 10.0355 1.92199 10.1491 2.06452 10.1491Z" fill="#DA2327"/>
<path d="M3.6129 9.64161C3.75543 9.64161 3.87097 9.52801 3.87097 9.38788C3.87097 9.24776 3.75543 9.13416 3.6129 9.13416C3.47038 9.13416 3.35484 9.24776 3.35484 9.38788C3.35484 9.52801 3.47038 9.64161 3.6129 9.64161Z" fill="#DA2327"/>
<path d="M5.16129 10.1491C5.30382 10.1491 5.41935 10.0355 5.41935 9.89534C5.41935 9.75521 5.30382 9.64161 5.16129 9.64161C5.01876 9.64161 4.90323 9.75521 4.90323 9.89534C4.90323 10.0355 5.01876 10.1491 5.16129 10.1491Z" fill="#DA2327"/>
<path d="M7.74194 9.64161C7.88446 9.64161 8 9.52801 8 9.38788C8 9.24776 7.88446 9.13416 7.74194 9.13416C7.59941 9.13416 7.48387 9.24776 7.48387 9.38788C7.48387 9.52801 7.59941 9.64161 7.74194 9.64161Z" fill="#DA2327"/>
<path d="M8.77419 10.6565C8.91672 10.6565 9.03226 10.5429 9.03226 10.4028C9.03226 10.2627 8.91672 10.1491 8.77419 10.1491C8.63167 10.1491 8.51613 10.2627 8.51613 10.4028C8.51613 10.5429 8.63167 10.6565 8.77419 10.6565Z" fill="#DA2327"/>
<path d="M7.22581 10.6565C7.36833 10.6565 7.48387 10.5429 7.48387 10.4028C7.48387 10.2627 7.36833 10.1491 7.22581 10.1491C7.08328 10.1491 6.96774 10.2627 6.96774 10.4028C6.96774 10.5429 7.08328 10.6565 7.22581 10.6565Z" fill="#DA2327"/>
<path d="M3.6129 10.6565C3.75543 10.6565 3.87097 10.5429 3.87097 10.4028C3.87097 10.2627 3.75543 10.1491 3.6129 10.1491C3.47038 10.1491 3.35484 10.2627 3.35484 10.4028C3.35484 10.5429 3.47038 10.6565 3.6129 10.6565Z" fill="#DA2327"/>
<path d="M10.3226 14.7161C10.3219 14.8064 10.3133 14.8963 10.2968 14.9851C10.277 15.067 10.2494 15.1469 10.2142 15.2236H0.619355C0.551081 15.0628 0.515992 14.8903 0.516129 14.7161H10.3226Z" fill="#DA2327"/>
<path d="M10.3329 13.7012H0.526452C0.389566 13.7012 0.258286 13.7547 0.161493 13.8499C0.0647003 13.945 0.0103226 14.0741 0.0103226 14.2087C0.0103226 14.3433 0.0647003 14.4723 0.161493 14.5675C0.258286 14.6627 0.389566 14.7161 0.526452 14.7161H10.3329C10.4698 14.7161 10.6011 14.6627 10.6979 14.5675C10.7947 14.4723 10.849 14.3433 10.849 14.2087C10.849 14.0741 10.7947 13.945 10.6979 13.8499C10.6011 13.7547 10.4698 13.7012 10.3329 13.7012Z" fill="#DA2327"/>
<path d="M10.3329 13.7012H9.81677C9.95366 13.7012 10.0849 13.7547 10.1817 13.8499C10.2785 13.945 10.3329 14.0741 10.3329 14.2087C10.3329 14.3433 10.2785 14.4723 10.1817 14.5675C10.0849 14.6627 9.95366 14.7161 9.81677 14.7161H10.3329C10.4698 14.7161 10.6011 14.6627 10.6979 14.5675C10.7947 14.4723 10.849 14.3433 10.849 14.2087C10.849 14.0741 10.7947 13.945 10.6979 13.8499C10.6011 13.7547 10.4698 13.7012 10.3329 13.7012Z" fill="#DA2327"/>
<path d="M4.8671 13.7012L4.04129 14.7009H2.66839L1.84258 13.7012H4.8671Z" fill="#DA2327"/>
<path d="M4.44903 13.7012L3.35484 15.0257L2.26065 13.7012H4.44903Z" fill="#DA2327"/>
<path d="M2.06452 10.1491C2.20704 10.1491 2.32258 10.0355 2.32258 9.89534C2.32258 9.75521 2.20704 9.64161 2.06452 9.64161C1.92199 9.64161 1.80645 9.75521 1.80645 9.89534C1.80645 10.0355 1.92199 10.1491 2.06452 10.1491Z" fill="#DA2327"/>
<path d="M3.6129 9.64161C3.75543 9.64161 3.87097 9.52801 3.87097 9.38788C3.87097 9.24776 3.75543 9.13416 3.6129 9.13416C3.47038 9.13416 3.35484 9.24776 3.35484 9.38788C3.35484 9.52801 3.47038 9.64161 3.6129 9.64161Z" fill="#DA2327"/>
<path d="M5.16129 10.1491C5.30382 10.1491 5.41935 10.0355 5.41935 9.89534C5.41935 9.75521 5.30382 9.64161 5.16129 9.64161C5.01876 9.64161 4.90323 9.75521 4.90323 9.89534C4.90323 10.0355 5.01876 10.1491 5.16129 10.1491Z" fill="#DA2327"/>
<path d="M7.74194 9.64161C7.88446 9.64161 8 9.52801 8 9.38788C8 9.24776 7.88446 9.13416 7.74194 9.13416C7.59941 9.13416 7.48387 9.24776 7.48387 9.38788C7.48387 9.52801 7.59941 9.64161 7.74194 9.64161Z" fill="#DA2327"/>
<path d="M8.77419 10.6565C8.91672 10.6565 9.03226 10.5429 9.03226 10.4028C9.03226 10.2627 8.91672 10.1491 8.77419 10.1491C8.63167 10.1491 8.51613 10.2627 8.51613 10.4028C8.51613 10.5429 8.63167 10.6565 8.77419 10.6565Z" fill="#DA2327"/>
<path d="M7.22581 10.6565C7.36833 10.6565 7.48387 10.5429 7.48387 10.4028C7.48387 10.2627 7.36833 10.1491 7.22581 10.1491C7.08328 10.1491 6.96774 10.2627 6.96774 10.4028C6.96774 10.5429 7.08328 10.6565 7.22581 10.6565Z" fill="#DA2327"/>
<path d="M3.6129 10.6565C3.75543 10.6565 3.87097 10.5429 3.87097 10.4028C3.87097 10.2627 3.75543 10.1491 3.6129 10.1491C3.47038 10.1491 3.35484 10.2627 3.35484 10.4028C3.35484 10.5429 3.47038 10.6565 3.6129 10.6565Z" fill="#DA2327"/>
</svg>
