<svg width="14" height="16" viewBox="0 0 14 16" fill="none" xmlns="http://www.w3.org/2000/svg">
<path d="M9.80761 0H4.19239L3.02133 1.14286H10.9787L9.80761 0Z" fill="#E8002A"/>
<path d="M11.3915 3.42857V1.71429H10.2204V3.42857H11.3915Z" fill="#E8002A"/>
<path d="M9.63488 3.42857V1.71429H4.36512V3.42857H9.63488Z" fill="#E8002A"/>
<path d="M3.77959 1.71429H2.60854V3.42857H3.77959V1.71429Z" fill="#E8002A"/>
<path d="M3.90227 12.654C4.27474 12.9687 4.75075 13.1422 5.24342 13.1429H8.75658C9.24925 13.1422 9.72526 12.9687 10.0977 12.654C10.4702 12.3393 10.7143 11.9043 10.7854 11.4286H9.58218C9.52224 11.5956 9.41058 11.7403 9.26268 11.8427C9.11477 11.9451 8.93792 12.0001 8.75658 12.0001C8.57525 12.0001 8.3984 11.9451 8.25049 11.8427C8.10259 11.7403 7.99094 11.5956 7.93099 11.4286H3.21456C3.28572 11.9043 3.52981 12.3393 3.90227 12.654Z" fill="#E8002A"/>
<path d="M9.34211 9.42857H10.074C10.1905 9.42857 10.3022 9.38342 10.3846 9.30305C10.4669 9.22267 10.5132 9.11366 10.5132 9C10.5132 8.88634 10.4669 8.77733 10.3846 8.69695C10.3022 8.61658 10.1905 8.57143 10.074 8.57143H3.92597C3.8095 8.57143 3.69781 8.61658 3.61545 8.69695C3.53309 8.77733 3.48683 8.88634 3.48683 9C3.48683 9.11366 3.53309 9.22267 3.61545 9.30305C3.69781 9.38342 3.8095 9.42857 3.92597 9.42857H6.12171C6.19935 9.42857 6.27382 9.45867 6.32872 9.51226C6.38363 9.56584 6.41447 9.63851 6.41447 9.71429C6.41447 9.79006 6.44532 9.86273 6.50022 9.91632C6.55513 9.9699 6.62959 10 6.70724 10C6.78488 10 6.85935 9.9699 6.91425 9.91632C6.96915 9.86273 7 9.79006 7 9.71429C7 9.63851 7.03085 9.56584 7.08575 9.51226C7.14065 9.45867 7.21512 9.42857 7.29277 9.42857H8.17106C8.24871 9.42857 8.32317 9.45867 8.37808 9.51226C8.43298 9.56584 8.46382 9.63851 8.46382 9.71429V11.1429C8.46382 11.2186 8.49467 11.2913 8.54957 11.3449C8.60448 11.3985 8.67894 11.4286 8.75658 11.4286C8.83423 11.4286 8.9087 11.3985 8.9636 11.3449C9.0185 11.2913 9.04935 11.2186 9.04935 11.1429V9.71429C9.04935 9.63851 9.0802 9.56584 9.1351 9.51226C9.19001 9.45867 9.26447 9.42857 9.34211 9.42857Z" fill="#E8002A"/>
<path d="M10.3846 10.7316C10.4669 10.6512 10.5132 10.5422 10.5132 10.4286C10.5132 10.3149 10.4669 10.2059 10.3846 10.1255C10.3022 10.0452 10.1905 10 10.074 10H9.63488V10.8571H10.074C10.1905 10.8571 10.3022 10.812 10.3846 10.7316Z" fill="#E8002A"/>
<path d="M5.87871 10H3.92597C3.8095 10 3.69781 10.0452 3.61545 10.1255C3.53309 10.2059 3.48683 10.3149 3.48683 10.4286C3.48683 10.5422 3.53309 10.6512 3.61545 10.7316C3.69781 10.812 3.8095 10.8571 3.92597 10.8571H7.87829V10H7.53576C7.47541 10.1674 7.36329 10.3124 7.21488 10.415C7.06648 10.5176 6.8891 10.5727 6.70724 10.5727C6.52538 10.5727 6.348 10.5176 6.19959 10.415C6.05118 10.3124 5.93906 10.1674 5.87871 10Z" fill="#E8002A"/>
<path fill-rule="evenodd" clip-rule="evenodd" d="M3.19406 8H10.8059V7.71429C10.8053 7.18404 10.5892 6.67568 10.205 6.30074C9.82082 5.9258 9.29991 5.71489 8.75658 5.71429H5.24342C4.70008 5.71489 4.17918 5.9258 3.79499 6.30074C3.41079 6.67568 3.19468 7.18404 3.19406 7.71429V8ZM5.24342 6.28571H4.65789V6.85714H5.24342V6.28571ZM5.53618 6.85714H6.12171V7.42857H5.53618V6.85714ZM7.29277 6.28571H6.70724V6.85714H7.29277V6.28571ZM7.58553 6.85714H8.17106V7.42857H7.58553V6.85714ZM9.34211 6.28571H8.75658V6.85714H9.34211V6.28571ZM9.63488 7.42857V6.85714H10.2204V7.42857H9.63488Z" fill="#E8002A"/>
<path fill-rule="evenodd" clip-rule="evenodd" d="M0.837309 13.8057L0.0878299 16H13.9122L13.1627 13.8057C13.1505 13.7679 13.1455 13.7282 13.1481 13.6886L14 4H0L0.851946 13.6886C0.854496 13.7282 0.849535 13.7679 0.837309 13.8057ZM11.3915 7.71429V8.28572C11.3915 8.36149 11.3606 8.43416 11.3057 8.48775C11.2508 8.54133 11.1763 8.57143 11.0987 8.57143H10.9962C11.0631 8.70491 11.0981 8.85143 11.0987 9C11.0983 9.13323 11.0707 9.26505 11.0174 9.38771C10.9641 9.51037 10.8862 9.62141 10.7884 9.71429C10.8862 9.80717 10.9641 9.9182 11.0174 10.0409C11.0707 10.1635 11.0983 10.2953 11.0987 10.4286C11.0981 10.5771 11.0631 10.7237 10.9962 10.8571H11.0987C11.1763 10.8571 11.2508 10.8872 11.3057 10.9408C11.3606 10.9944 11.3915 11.0671 11.3915 11.1429C11.3904 11.8245 11.1124 12.478 10.6185 12.96C10.1246 13.442 9.45506 13.7132 8.75658 13.7143H5.24342C4.54494 13.7132 3.87537 13.442 3.38147 12.96C2.88757 12.478 2.60962 11.8245 2.60854 11.1429C2.60854 11.0671 2.63938 10.9944 2.69428 10.9408C2.74919 10.8872 2.82365 10.8571 2.9013 10.8571H3.00377C2.93691 10.7237 2.90188 10.5771 2.9013 10.4286C2.90166 10.2953 2.9293 10.1635 2.98259 10.0409C3.03588 9.9182 3.11375 9.80717 3.21163 9.71429C3.11375 9.62141 3.03588 9.51037 2.98259 9.38771C2.9293 9.26505 2.90166 9.13323 2.9013 9C2.90188 8.85143 2.93691 8.70491 3.00377 8.57143H2.9013C2.82365 8.57143 2.74919 8.54133 2.69428 8.48775C2.63938 8.43416 2.60854 8.36149 2.60854 8.28572V7.71429C2.60962 7.03263 2.88757 6.37919 3.38147 5.89718C3.87537 5.41517 4.54494 5.14392 5.24342 5.14286H8.75658C9.45506 5.14392 10.1246 5.41517 10.6185 5.89718C11.1124 6.37919 11.3904 7.03263 11.3915 7.71429Z" fill="#E8002A"/>
</svg>
