<svg width="18" height="17" viewBox="0 0 18 17" fill="none" xmlns="http://www.w3.org/2000/svg">
<path d="M9.18518 7.45166C8.44444 7.45166 7.85185 8.00742 7.85185 8.70212C7.85185 8.98 7.92592 9.25788 8.14815 9.46629C4.74074 9.95258 2.22222 12.5924 2.22222 15.8575C2.22222 16.0659 2.22222 16.2049 2.2963 16.4133H0.296296C0.148148 16.4133 0 16.5522 0 16.6912C0 16.8301 0.148148 16.969 0.296296 16.969H2.51852C7.55556 16.969 14.8148 17.0385 17.7037 16.969C17.8519 16.969 18 16.8301 18 16.6912C18 16.5522 17.8519 16.4133 17.7037 16.4133H16.2222C16.2222 16.2049 16.2963 15.9965 16.2963 15.788C16.2963 12.523 13.7037 9.88311 10.2963 9.32735C10.4444 9.11894 10.5926 8.84106 10.5926 8.56318C10.5185 8.07689 9.92593 7.45166 9.18518 7.45166ZM12.0741 11.8977H12.1481C12.963 12.0367 13.7037 12.5924 13.8518 13.2871C13.9259 13.4261 13.7778 13.6345 13.6296 13.6345C13.4815 13.7039 13.2593 13.565 13.2593 13.4261C13.1111 12.8703 12.5926 12.523 12 12.384C11.7778 12.4535 11.7778 11.9672 12.0741 11.8977Z" fill="#DA2327"/>
<path d="M6.32629 3.76489C6.00195 4.27694 5.54787 5.60825 6.32629 6.15443C7.29931 6.83716 6.81273 7.86124 6.20459 8.37329" stroke="#333333" stroke-width="0.5"/>
<path d="M12.2228 3.76489C11.8984 4.27694 11.4444 5.60825 12.2228 6.15443C13.1958 6.83716 12.7092 7.86124 12.1011 8.37329" stroke="#333333" stroke-width="0.5"/>
<path d="M9.27453 1C8.95019 1.51204 8.49611 2.84336 9.27453 3.38954C10.2476 4.07226 9.76097 5.09635 9.15283 5.6084" stroke="#333333" stroke-width="0.5"/>
</svg>
