<svg width="112" height="89" viewBox="0 0 112 89" fill="none" xmlns="http://www.w3.org/2000/svg">
<path d="M9.64833 8.49346C9.03392 8.33743 8.66233 7.71286 8.81836 7.09845L8.86785 6.90361L8.69167 7.00045C8.13614 7.3058 7.43827 7.10299 7.13292 6.54747C6.83765 6.01029 7.01753 5.34001 7.53202 5.02024C6.95367 4.83997 6.61116 4.23632 6.76205 3.64218C6.91808 3.02777 7.54265 2.65619 8.15706 2.81222L8.35208 2.86174L8.2551 2.68531C7.94975 2.12979 8.15256 1.43192 8.70808 1.12657C9.24526 0.831298 9.91555 1.01118 10.2353 1.52568C10.4156 0.947309 11.0192 0.604792 11.6134 0.755681C12.2278 0.911714 12.5994 1.53628 12.4433 2.15069L12.3937 2.34603L12.5703 2.24895C13.1259 1.9436 13.8237 2.14641 14.1291 2.70193C14.4244 3.23913 14.2445 3.90945 13.7299 4.2292C14.3082 4.4095 14.6507 5.01312 14.4998 5.60724C14.3438 6.22165 13.7192 6.59324 13.1048 6.4372L12.9097 6.38764L13.0066 6.56399C13.3119 7.11952 13.1091 7.81739 12.5536 8.12274C12.0164 8.41802 11.3461 8.23812 11.0264 7.72359C10.846 8.30188 10.2424 8.64434 9.64833 8.49346Z" fill="#14A000"/>
<path d="M83.603 14.9777C82.9886 14.8217 82.617 14.1971 82.7731 13.5827L82.8225 13.3879L82.6464 13.4847C82.0908 13.7901 81.393 13.5873 81.0876 13.0318C80.7923 12.4946 80.9722 11.8243 81.4867 11.5045C80.9084 11.3242 80.5659 10.7206 80.7167 10.1265C80.8728 9.51205 81.4973 9.14046 82.1118 9.2965L82.3068 9.34602L82.2098 9.1696C81.9044 8.61407 82.1072 7.9162 82.6628 7.61085C83.2 7.31558 83.8703 7.49547 84.19 8.00997C84.3703 7.43159 84.9739 7.08907 85.5681 7.23996C86.1825 7.396 86.5541 8.02056 86.3981 8.63497L86.3484 8.83031L86.525 8.73323C87.0806 8.42788 87.7784 8.63069 88.0838 9.18621C88.3791 9.72341 88.1991 10.3937 87.6846 10.7135C88.2629 10.8938 88.6054 11.4974 88.4545 12.0915C88.2985 12.7059 87.6739 13.0775 87.0595 12.9215L86.8644 12.8719L86.9613 13.0483C87.2666 13.6038 87.0638 14.3017 86.5083 14.607C85.9711 14.9023 85.3008 14.7224 84.9811 14.2079C84.8007 14.7862 84.1971 15.1286 83.603 14.9777Z" fill="#14A000"/>
<path d="M5.85572 49.3366C5.72395 49.9787 5.58828 50.6577 5.44825 51.382L3.19443 50.9456C4.55985 43.8857 5.54375 40.7621 6.32609 38.638C7.16811 36.3479 8.85262 34.5222 11.0693 33.4984C12.1601 32.9945 13.3155 32.7156 14.4805 32.6616C14.2987 32.0671 14.1738 31.4378 14.0795 30.8694C13.7257 28.7396 13.5974 25.9378 13.7177 22.9806C13.8377 20.0244 14.1933 17.2432 14.7193 15.1492C15.1543 13.4162 15.9373 11.1202 17.5956 11.187C18.9836 11.2435 19.8878 12.9941 20.2976 16.3985C21.9623 13.9093 23.8364 12.3392 25.5138 12.9562C26.4624 13.3051 27.5526 14.441 27.36 17.8702C27.3434 18.1635 27.317 18.4672 27.2833 18.7781C29.7256 16.5578 31.4985 15.8569 32.57 16.6964C33.8857 17.7283 32.9849 19.9771 32.1931 21.5787C31.2363 23.5141 29.7045 25.8627 27.8797 28.1919C26.0547 30.5217 24.1411 32.5719 22.4912 33.9646C22.0626 34.3262 21.5748 34.7125 21.0666 35.0419C21.9543 35.8518 22.6802 36.838 23.1994 37.9619C23.9317 39.547 24.1886 41.2683 23.9687 42.9583C26.2645 41.1969 28.6847 39.6822 30.6381 38.5556C30.6854 35.9907 30.4588 33.4045 29.9595 30.8653L29.6904 29.4962H31.0859C31.7299 29.4962 33.3749 29.6436 34.7417 31.0104C34.8721 31.141 34.9935 31.2781 35.1081 31.4195C35.2226 31.2781 35.344 31.141 35.4744 31.0104C36.841 29.6438 38.4863 29.4962 39.1302 29.4962H40.5257L40.2564 30.8655C39.7571 33.4045 39.5303 35.9909 39.5778 38.5569C41.9313 39.915 44.9631 41.8376 47.6411 44.0758C47.8888 44.0797 48.1347 44.0916 48.3757 44.1169C51.2879 44.424 54.3686 43.9064 57.2849 42.6208C57.8528 42.3702 58.4075 42.0954 58.9325 41.8045C60.7164 40.8209 62.739 40.3014 64.7826 40.3014C68.0515 40.3014 71.115 41.5844 73.409 43.9142C75.7023 46.2433 76.9375 49.3272 76.887 52.5975C76.881 52.9742 76.8546 53.3486 76.814 53.7201H77.3863C81.8012 46.4761 85.9402 46.1448 86.4082 46.1315L86.4732 48.4262L86.4966 48.4253C86.4647 48.4273 83.5601 48.6929 80.1165 53.7201H92.7305C94.2367 53.701 95.6792 53.2256 96.9035 52.3434C100.181 49.9803 100.927 45.393 98.5659 42.1174C96.9186 39.8305 94.0613 38.6821 91.2857 39.1921L90.8711 36.9342C91.8495 36.7544 92.8348 36.7368 93.7962 36.858C94.491 36.2639 94.9435 35.4058 95.0264 34.4905C95.0578 34.1501 95.0392 33.8057 94.9708 33.4651C94.5835 31.5609 92.717 30.3245 90.8087 30.7113C90.0715 30.8612 89.4129 31.2397 88.9116 31.7879C88.7426 33.8482 88.0262 35.8339 86.7999 37.5652L84.9264 36.2386C86.3761 34.1916 86.942 31.7023 86.5196 29.2297C86.0972 26.7571 84.7368 24.597 82.6898 23.1473C80.6426 21.6974 78.1533 21.1317 75.6809 21.5541C73.2083 21.9765 71.0479 23.3367 69.5985 25.3837C67.5095 28.3335 67.3063 32.2753 69.0806 35.4264L67.0802 36.5527C65.7678 34.2219 65.325 31.5434 65.7281 28.9832C63.8466 28.5346 61.8947 28.799 60.1923 29.7412C58.3847 30.742 57.0751 32.3871 56.5046 34.373C56.0051 36.1101 56.1302 37.9757 56.857 39.626L54.7561 40.5509C53.8135 38.41 53.651 35.9907 54.2986 33.7387C54.5858 32.7386 55.0161 31.8176 55.5609 30.9916C55.3636 31.099 55.1668 31.2072 54.971 31.3172C53.5642 32.1093 52.0668 32.5805 50.5697 33.0517C50.1281 33.1907 49.6866 33.3296 49.2475 33.4768C48.7664 33.638 48.6879 33.5704 48.4156 33.0334C48.2336 32.6708 48.2168 32.6642 47.9143 32.9363C47.1234 33.6444 46.6431 34.5247 46.6532 35.6634C46.659 36.1289 46.616 36.5954 46.5251 37.0535C46.4362 37.5399 46.2104 37.9873 45.8803 38.3312C45.366 38.859 44.7718 39.1746 44.0831 38.9148C43.4306 38.6685 43.1409 38.0547 43.0144 37.3427C42.9878 37.1807 42.9783 37.0144 42.9688 36.8498C42.964 36.7659 42.9593 36.6825 42.9523 36.6003C42.7803 36.5413 42.6213 36.5716 42.4662 36.6011C42.3918 36.6152 42.3182 36.6292 42.2446 36.6331C40.8388 36.7112 39.8217 35.168 40.3184 33.698C40.642 32.732 41.3241 32.2245 42.2126 32.5106C42.9332 32.7428 43.3996 32.5328 43.8784 31.953C44.1651 31.6055 44.515 31.3348 44.8645 31.0644C45.0252 30.9401 45.1858 30.8158 45.3401 30.6842C45.3544 30.672 45.3688 30.6599 45.3832 30.6479C45.5556 30.5037 45.7239 30.363 45.543 30.0692C45.453 29.9248 45.506 29.755 45.5568 29.5921L45.5649 29.5662C45.5684 29.5548 45.5718 29.5436 45.5752 29.5323C45.9308 28.3274 46.285 27.122 46.6378 25.916C46.8156 25.2634 47.0526 24.6305 47.3451 24.027C47.7333 23.2638 48.1 22.4877 48.4666 21.7118L48.4677 21.7098C49.1468 20.2727 49.826 18.8353 50.642 17.4786C50.7149 17.3571 50.7871 17.2351 50.8594 17.113L50.8596 17.1127C51.0329 16.8198 51.2062 16.527 51.389 16.2416C52.5467 14.4279 54.1054 13.4105 56.094 13.2544C57.3967 13.1523 58.6589 13.2861 59.8443 13.8886C59.9013 13.9123 59.9564 13.9411 60.009 13.9746C62.0939 15.568 63.7113 17.5214 63.9193 20.5115C64.0883 22.9284 63.3201 24.9575 61.8358 26.7039C63.2719 26.3936 64.7945 26.395 66.3057 26.7624C66.6539 25.8132 67.1266 24.902 67.7251 24.0568C71.4497 18.7978 78.7579 17.5492 84.0169 21.2736C86.5646 23.0777 88.2569 25.7661 88.7828 28.8431C88.788 28.874 88.7922 28.9048 88.7963 28.9356C88.7997 28.9604 88.803 28.9852 88.8069 29.01C89.2883 28.758 89.8073 28.5722 90.3516 28.4616C93.4998 27.8223 96.5812 29.8635 97.2212 33.0105C97.3337 33.5723 97.3642 34.14 97.3123 34.7001C97.2203 35.7132 96.853 36.6837 96.2754 37.5097C97.9096 38.1818 99.3623 39.2961 100.428 40.7754C101.931 42.8596 102.531 45.4049 102.118 47.942C101.705 50.4784 100.33 52.7027 98.2455 54.2056C97.0219 55.0873 95.6322 55.6601 94.166 55.8949V56.0792C94.166 69.6623 85.7354 81.3118 73.8325 86.0731H95.143V88.3686H0.49527V86.0731H21.8025C10.4997 81.556 2.28308 70.8271 1.52875 58.0046C1.4911 57.3673 1.47205 56.7195 1.47205 56.0792V53.7203H16.69C18.0088 51.2199 19.1688 48.8993 20.0136 47.1197L14.6038 45.1292L15.3965 42.9748L20.9718 45.0262C21.1251 44.6715 21.2447 44.3788 21.326 44.1582C21.9566 42.4432 21.8817 40.5844 21.1152 38.9249C20.3485 37.2652 18.9815 36.004 17.2658 35.3734C15.5498 34.7417 13.6913 34.816 12.0316 35.5828C10.3718 36.3495 9.11065 37.7163 8.48005 39.4313C7.90844 40.9834 7.22298 43.1025 6.33963 47.0686L12.9902 49.5154L12.1975 51.6699L5.85572 49.3366Z" fill="#14A000"/>
<path d="M9.50865 43.2541L12.5412 44.3698L13.3338 42.2154L10.3013 41.0997L9.50865 43.2541Z" fill="#14A000"/>
<path d="M91.9108 50.4054C92.9174 50.5687 93.927 50.3311 94.7543 49.7353C95.5814 49.1394 96.1271 48.2572 96.291 47.2513C96.4547 46.2451 96.2169 45.2353 95.6209 44.408L97.4838 43.0664C98.4376 44.3912 98.8189 46.0082 98.557 47.6197C98.2946 49.2312 97.4207 50.6444 96.0959 51.5985C95.0441 52.3555 93.8079 52.752 92.5366 52.752C92.2069 52.752 91.8745 52.7251 91.5426 52.6712L91.9108 50.4054Z" fill="#14A000"/>
<path d="M75.6109 25.4546L74.9764 27.6609C73.5614 27.2541 72.0791 28.0743 71.6723 29.4893C71.2658 30.9043 72.0858 32.3866 73.5008 32.7934L72.8667 34.9997C70.2353 34.2431 68.7096 31.4867 69.466 28.8551C70.2227 26.2236 72.9797 24.6986 75.6109 25.4546Z" fill="#14A000"/>
<path d="M40.8767 20.9101C41.1207 21.3026 41.6321 21.4399 42.042 21.2146C42.4658 20.9816 42.6205 20.4492 42.3876 20.0253L42.3136 19.8908L42.4625 19.9286C42.9313 20.0477 43.4078 19.7642 43.5268 19.2954C43.642 18.8421 43.3807 18.3816 42.9394 18.244C43.332 18 43.4693 17.4886 43.244 17.0788C43.011 16.6549 42.4786 16.5002 42.0547 16.7332L41.92 16.8072L41.9578 16.6582C42.0769 16.1894 41.7934 15.7129 41.3246 15.5939C40.8713 15.4787 40.4108 15.7401 40.2732 16.1813C40.0292 15.7888 39.5178 15.6516 39.108 15.8768C38.6842 16.1098 38.5294 16.6422 38.7624 17.0661L38.8364 17.2007L38.6876 17.1629C38.2188 17.0439 37.7423 17.3274 37.6233 17.7961C37.5081 18.2494 37.7695 18.71 38.2107 18.8475C37.8182 19.0915 37.6809 19.6029 37.9062 20.0127C38.1392 20.4366 38.6716 20.5913 39.0955 20.3583L39.2299 20.2845L39.1921 20.4331C39.0731 20.9019 39.3566 21.3784 39.8254 21.4974C40.2786 21.6126 40.7392 21.3513 40.8767 20.9101Z" fill="#14A000"/>
<path d="M108.282 36.7886C108.602 37.3032 109.273 37.4831 109.81 37.1878C110.365 36.8824 110.568 36.1846 110.263 35.629L110.166 35.4527L110.361 35.5022C110.975 35.6583 111.6 35.2867 111.756 34.6723C111.907 34.0782 111.564 33.4745 110.986 33.2942C111.501 32.9745 111.68 32.3042 111.385 31.767C111.08 31.2114 110.382 31.0086 109.826 31.314L109.65 31.4111L109.699 31.2157C109.855 30.6013 109.484 29.9768 108.869 29.8207C108.275 29.6698 107.672 30.0124 107.491 30.5907C107.172 30.0762 106.501 29.8963 105.964 30.1916C105.409 30.497 105.206 31.1948 105.511 31.7504L105.608 31.9268L105.413 31.8773C104.799 31.7212 104.174 32.0928 104.018 32.7072C103.867 33.3014 104.21 33.905 104.788 34.0853C104.274 34.405 104.094 35.0753 104.389 35.6125C104.694 36.168 105.392 36.3708 105.948 36.0655L106.124 35.9686L106.074 36.1635C105.918 36.7779 106.29 37.4025 106.904 37.5585C107.499 37.7094 108.102 37.3669 108.282 36.7886Z" fill="#14A000"/>
<path d="M44.0778 74.1893C44.0778 72.673 44.3693 71.4003 44.9521 70.3714C45.5642 69.3424 46.4676 68.2052 47.6625 66.9596C48.9157 65.6599 49.7755 64.658 50.2418 63.954C50.7081 63.2229 50.9412 62.3564 50.9412 61.3546C50.9412 60.1632 50.5186 59.2561 49.6735 58.6333C48.8283 57.9834 47.7791 57.6585 46.5259 57.6585C44.6024 57.6585 42.6352 58.173 40.6243 59.2019L40.1434 55.2621C41.2217 54.6935 42.3583 54.2603 43.5532 53.9624C44.7481 53.6646 46.1179 53.5156 47.6625 53.5156C49.4403 53.5156 50.9558 53.8406 52.209 54.4904C53.4913 55.1132 54.4676 55.9797 55.1379 57.0899C55.8082 58.173 56.1434 59.3779 56.1434 60.7047C56.1434 62.0586 55.8228 63.2364 55.1817 64.2383C54.5696 65.2402 53.5933 66.4451 52.2527 67.8532C51.0869 69.0716 50.2272 70.1141 49.6735 70.9806C49.1489 71.8471 48.8866 72.8354 48.8866 73.9456V74.9204H44.0778V74.1893ZM43.903 77.6823H49.0177V82.5156H43.903V77.6823Z" fill="white"/>
</svg>
