<svg width="127" height="91" viewBox="0 0 127 91" fill="none" xmlns="http://www.w3.org/2000/svg">
    <path
        d="M29.1323 17.4563C29.1323 11.3189 30.869 11.1452 31.5965 10.1609V0.260042L0.898804 0.260043L0.898805 9.98723C2.30696 10.682 3.12838 13.6735 3.36307 15.0824L3.36307 39.4583C3.36307 45.5957 1.62635 45.7694 0.898809 46.7537L0.89881 56.6546H31.5965V46.9274C30.1884 46.2326 29.3669 43.2411 29.1323 41.8322V17.4563Z"
        fill="#14A000" />
    <path
        d="M41.4536 0.0284424V21.6251C43.1543 21.9493 44.0992 19.946 44.359 18.9038L45.6345 6.80273C46.981 1.30224 43.863 0.144242 41.4536 0.0284424Z"
        fill="#14A000" />
    <path
        d="M41.4536 0.0863423V21.5902C39.7528 21.913 38.808 19.9183 38.5482 18.8806L37.2726 6.83151C35.9262 1.35467 39.0442 0.201644 41.4536 0.0863423Z"
        fill="#14A000" />
    <path
        d="M123.543 17.4566C123.372 27.2962 123.219 41.9997 123.614 43.3821C123.627 43.4269 123.64 43.4707 123.652 43.5136L123.657 43.5319L123.658 43.5361C124.071 44.9834 124.18 45.3658 126.154 47.0915V56.4809H102.735V47.0915C104.71 45.6077 105.345 44.0003 105.415 43.3821V26.9796L91.5134 56.4809H82.0788L72.0105 27.0677V43.4534C72.0809 44.071 72.7146 45.6767 74.686 47.159V56.4809H51.3106V47.159C51.9678 46.58 53.3947 45.0283 53.8453 43.4534C54.2959 41.8785 54.0331 22.9954 53.8453 13.7507C53.8688 13.1138 53.451 11.4463 51.5923 9.87143V0.144242H82.0788L88.6971 22.3778V22.2849L91.5134 0.0284424H111.279C110.824 0.116181 110.315 0.311661 109.907 0.710815C109.351 1.25459 109.039 2.12232 109.221 3.4589C109.238 3.58245 109.173 3.71095 109.045 3.79347C108.215 4.33159 107.194 5.27183 106.807 6.31236C106.611 6.83926 106.572 7.40579 106.824 7.95706C107.077 8.50932 107.604 9.01186 108.464 9.43333C108.613 9.50652 108.685 9.62815 108.671 9.73737L108.663 9.80321C108.552 10.663 108.399 11.8583 108.841 12.844C109.07 13.3547 109.462 13.8167 110.099 14.1483C110.731 14.4777 111.577 14.6634 112.687 14.6675C112.861 14.6682 113.006 14.7521 113.06 14.8678C113.428 15.6593 113.793 16.3593 114.496 16.8004C115.217 17.2521 116.22 17.3927 117.737 17.2455C117.849 17.2346 117.966 17.2635 118.061 17.3285C118.65 17.734 119.539 18.1934 120.562 18.3098C121.522 18.419 122.567 18.221 123.543 17.4566Z"
        fill="#14A000" />
    <path
        d="M25.0683 68.3758H23.5577V80.5101H25.0683V84.9324H13.6482V80.5101H15.0984V76.0609H10.8687V80.5101H12.3189V84.9324H0.898804V80.5101H2.40939V68.3758H0.898804V63.9535H12.3189V68.3758H10.8687V72.4745H15.0984V68.3758H13.6482V63.9535H25.0683V68.3758Z"
        fill="#14A000" />
    <path
        d="M35.2147 85.3099C32.3547 85.3099 30.119 84.6448 28.5077 83.3145C26.8964 81.9663 26.0907 80.0068 26.0907 77.4361C26.0907 74.8654 26.8964 72.9149 28.5077 71.5846C30.119 70.2364 32.3547 69.5623 35.2147 69.5623C38.0546 69.5623 40.0989 70.2274 41.3477 71.5577C42.6166 72.87 43.251 74.5059 43.251 76.4654V78.4068H33.4624V78.5686C33.4624 79.2338 33.684 79.7281 34.1271 80.0517C34.5702 80.3573 35.3053 80.5101 36.3325 80.5101C37.5612 80.5101 38.7293 80.4292 39.8371 80.2674C40.9449 80.1057 41.9117 79.8989 42.7374 79.6472V83.9617C42.0325 84.3032 40.9952 84.6178 39.6256 84.9055C38.2762 85.1751 36.8059 85.3099 35.2147 85.3099ZM36.967 75.4407V75.1171C36.967 74.5059 36.8159 74.0654 36.5138 73.7958C36.2318 73.5261 35.7988 73.3913 35.2147 73.3913C34.6306 73.3913 34.1875 73.5351 33.8854 73.8228C33.6034 74.0924 33.4624 74.5239 33.4624 75.1171V75.4407H36.967Z"
        fill="#14A000" />
    <path
        d="M61.7633 80.5101V84.9324H53.7874V83.0988C53.3443 83.6741 52.7199 84.1864 51.9143 84.6358C51.1288 85.0852 50.162 85.3099 49.0139 85.3099C47.5034 85.3099 46.315 84.9504 45.449 84.2313C44.5829 83.5123 44.1498 82.4966 44.1498 81.1843C44.1498 77.7866 47.3825 76.0429 53.8478 75.953C53.7874 75.3418 53.5256 74.9283 53.0623 74.7126C52.5991 74.4789 51.8136 74.3621 50.7058 74.3621C49.7995 74.3621 48.8226 74.4519 47.7753 74.6317C46.7481 74.7935 45.8014 75.0182 44.9354 75.3058V70.3442C46.0028 70.1106 47.161 69.9218 48.4097 69.778C49.6585 69.6342 50.877 69.5623 52.0653 69.5623C55.0664 69.5623 57.2114 70.0476 58.5005 71.0184C59.7895 71.9891 60.434 73.4902 60.434 75.5216V80.5101H61.7633ZM53.7874 78.6226C52.8811 78.6226 52.1761 78.7304 51.6726 78.9462C51.1892 79.1619 50.9475 79.5214 50.9475 80.0248C50.9475 80.3304 51.0482 80.582 51.2496 80.7798C51.4712 80.9596 51.7733 81.0494 52.156 81.0494C52.6797 81.0494 53.0825 80.8517 53.3645 80.4562C53.6464 80.0607 53.7874 79.5034 53.7874 78.7844V78.6226Z"
        fill="#14A000" />
    <path
        d="M62.7372 84.9594V80.5101H64.0665V68.3758H62.7372V63.9535H71.0152V80.5101H72.3446V84.9594H62.7372Z"
        fill="#14A000" />
    <path
        d="M80.7618 85.3099C78.6269 85.3099 77.0156 84.8515 75.928 83.9347C74.8605 82.9999 74.3267 81.4359 74.3267 79.2428V74.3621H72.9974V69.9398C73.7628 69.9398 74.3368 69.769 74.7195 69.4274C75.1022 69.0679 75.2935 68.5825 75.2935 67.9713V66.7579H81.6984V69.9398H85.777V74.3621H81.6984V78.7844C81.6984 79.3776 81.8394 79.818 82.1214 80.1057C82.4235 80.3753 82.8666 80.5101 83.4507 80.5101C84.2161 80.5101 85.0519 80.4292 85.9583 80.2674V84.501C85.3943 84.6987 84.629 84.8785 83.6622 85.0403C82.7155 85.2201 81.7488 85.3099 80.7618 85.3099Z"
        fill="#14A000" />
    <path
        d="M106.991 80.5101V84.9324H97.444V80.5101H98.7129V76.0878C98.7129 75.4946 98.5719 75.0632 98.2899 74.7935C98.0079 74.5059 97.585 74.3621 97.021 74.3621C95.8125 74.3621 95.2083 74.9373 95.2083 76.0878V80.5101H96.4772V84.9324H86.9303V80.5101H88.2596V68.3758H86.9303V63.9535H95.2083V72.0431C95.9535 71.2161 96.7592 70.5959 97.6252 70.1825C98.4913 69.769 99.4984 69.5623 100.646 69.5623C102.318 69.5623 103.567 70.0297 104.393 70.9644C105.239 71.8992 105.662 73.1846 105.662 74.8205V80.5101H106.991Z"
        fill="#14A000" />
    <path
        d="M126.154 69.9398V74.3621H125.006L121.048 83.719C120.061 86.074 118.933 87.8357 117.664 89.0042C116.395 90.1907 114.724 90.7839 112.649 90.7839C111.803 90.7839 110.947 90.703 110.081 90.5412C109.215 90.3974 108.43 90.1906 107.725 89.921V85.0403H111.894V85.3099C111.894 85.7594 112.156 85.9841 112.679 85.9841C113.143 85.9841 113.495 85.7863 113.737 85.3908L108.963 74.3621H107.815V69.9398H116.788V74.3621H115.761L117.332 78.5686L118.782 74.3621H117.755V69.9398H126.154Z"
        fill="#14A000" />
</svg>
